<?xml version="1.0" encoding="UTF-8"?>
<svg version="1.1" xmlns="http://www.w3.org/2000/svg" width="500" height="500">
<path d="M0 0 C2.58589723 2.58589723 4.86664144 5.11729094 5.1328125 8.875 C5.13023437 9.57625 5.12765625 10.2775 5.125 11 C5.12886719 12.051875 5.12886719 12.051875 5.1328125 13.125 C5 15 5 15 4 17 C4.62003906 17.08636719 5.24007812 17.17273438 5.87890625 17.26171875 C17.10387314 19.04268147 28.03094898 22.50684944 38 28 C38 28.66 38 29.32 38 30 C38.61875 30.144375 39.2375 30.28875 39.875 30.4375 C42 31 42 31 44 32 C44 32.66 44 33.32 44 34 C45.65 34.66 47.3 35.32 49 36 C49 36.66 49 37.32 49 38 C50.32 38.33 51.64 38.66 53 39 C53 39.66 53 40.32 53 41 C53.66 41 54.32 41 55 41 C55 41.66 55 42.32 55 43 C55.66 43 56.32 43 57 43 C57 43.66 57 44.32 57 45 C57.66 45 58.32 45 59 45 C59 46.32 59 47.64 59 49 C58.34 49 57.68 49 57 49 C55.83831032 55.1096145 55.83831032 55.1096145 57.3125 61 C58.8502393 63.08978966 58.8502393 63.08978966 61 64 C60.4164506 67.39266429 59.33564677 69.04035138 56.91015625 71.453125 C56.29076172 72.071875 55.67136719 72.690625 55.03320312 73.328125 C54.38287109 73.96234375 53.73253906 74.5965625 53.0625 75.25 C52.41603516 75.8996875 51.76957031 76.549375 51.10351562 77.21875 C46.26702009 82 46.26702009 82 44 82 C44 82.66 44 83.32 44 84 C41 86 41 86 39.046875 85.875 C36.39311712 84.74056915 35.13109452 83.176473 33.25 81 C30.41651912 78.01738855 28.63361958 76.46906321 24.5 76 C23.345 76 22.19 76 21 76 C20.731875 76.639375 20.46375 77.27875 20.1875 77.9375 C19 80 19 80 16 81 C16 81.66 16 82.32 16 83 C15.34 83 14.68 83 14 83 C14 83.66 14 84.32 14 85 C13.34 85 12.68 85 12 85 C12 85.66 12 86.32 12 87 C10.56302415 88.23646759 9.11992094 89.46683322 7.640625 90.65234375 C4.66197573 93.09909136 1.93894869 95.83560453 -0.48046875 98.8359375 C-2.77244836 101.50356223 -4.6809347 103.67846589 -8.18028259 104.53146362 C-16.84999831 105.10083968 -25.50716077 105.14549407 -34.19140625 105.1328125 C-35.8299918 105.1334874 -37.46857726 105.13445897 -39.10716248 105.13571167 C-42.51684537 105.13717616 -45.92650184 105.13507207 -49.33618164 105.13037109 C-53.71096389 105.12463354 -58.08568533 105.12798591 -62.46046543 105.13394356 C-65.83268192 105.1375483 -69.20488384 105.13641169 -72.57710075 105.13381577 C-74.19148707 105.13314836 -75.8058747 105.13396842 -77.42025948 105.13629532 C-79.66505606 105.1388248 -81.90975197 105.13497894 -84.15454102 105.12939453 C-85.43152359 105.12859894 -86.70850616 105.12780334 -88.02418518 105.12698364 C-91 105 -91 105 -93 104 C-93.41943282 84.28665768 -86.92743378 64.76125178 -75 49 C-74.34 49 -73.68 49 -73 49 C-72.71125 48.401875 -72.4225 47.80375 -72.125 47.1875 C-71 45 -71 45 -69 42 C-68.34 42 -67.68 42 -67 42 C-67 41.34 -67 40.68 -67 40 C-62.52941176 36 -62.52941176 36 -60 36 C-60 35.34 -60 34.68 -60 34 C-51.10012487 26.01483426 -37.48352705 21.23927081 -26.0390625 18.5078125 C-23.95161785 18.06656335 -23.95161785 18.06656335 -22 17 C-20.67139075 16.64830932 -19.33841672 16.31229724 -18 16 C-18.33 15.67 -18.66 15.34 -19 15 C-19.16796875 13.07421875 -19.16796875 13.07421875 -19.1875 10.6875 C-19.20167969 9.90761719 -19.21585937 9.12773438 -19.23046875 8.32421875 C-18.89488643 4.93995639 -18.02217676 2.83833202 -15.37109375 0.6640625 C-9.91190842 -2.26956032 -5.71915114 -2.62315397 0 0 Z " fill="#B4351F" transform="translate(257,115)"/>
<path d="M0 0 C0.98226562 -0.00257813 1.96453125 -0.00515625 2.9765625 -0.0078125 C5.375 0.125 5.375 0.125 6.375 1.125 C7.11456311 9.07745334 5.66504682 16.93127031 4.375 24.75 C4.18421875 25.94496094 3.9934375 27.13992187 3.796875 28.37109375 C3.32981041 31.29024742 2.85572135 34.20806978 2.375 37.125 C0.3867417 37.5224167 -1.61584124 37.85225066 -3.625 38.125 C-5.34765625 36.875 -5.34765625 36.875 -6.6875 35.125 C-8.10291822 33.43440338 -8.10291822 33.43440338 -9.625 32.125 C-12.43916116 32.08402218 -12.43916116 32.08402218 -14.625 33.125 C-14.625 33.785 -14.625 34.445 -14.625 35.125 C-15.285 35.125 -15.945 35.125 -16.625 35.125 C-16.625 35.785 -16.625 36.445 -16.625 37.125 C-17.27406815 37.54852753 -17.92313629 37.97205505 -18.59187317 38.40841675 C-20.8577804 39.96296794 -20.8577804 39.96296794 -21.13725281 42.60501099 C-21.14311905 43.59016693 -21.14898529 44.57532288 -21.1550293 45.59033203 C-21.17152023 46.70803986 -21.18801117 47.82574768 -21.20500183 48.97732544 C-21.20309341 50.18363617 -21.201185 51.3899469 -21.19921875 52.6328125 C-21.21338333 53.8691745 -21.22754791 55.1055365 -21.24214172 56.37936401 C-21.27701903 59.66374103 -21.29535691 62.94764613 -21.30493164 66.23217773 C-21.32232303 70.86894542 -21.36935588 75.50549614 -21.41499329 80.14205933 C-21.43758714 82.6115081 -21.45334125 85.08103011 -21.46183777 87.55056763 C-21.46887222 88.66197113 -21.47590668 89.77337463 -21.4831543 90.91845703 C-21.48663376 91.90202179 -21.49011322 92.88558655 -21.49369812 93.8989563 C-21.625 96.125 -21.625 96.125 -22.625 97.125 C-25.11738569 97.25153198 -27.56970441 97.31019825 -30.0625 97.3125 C-30.75666016 97.32474609 -31.45082031 97.33699219 -32.16601562 97.34960938 C-33.98720901 97.35489842 -35.8078692 97.24669207 -37.625 97.125 C-40.60355356 94.14644644 -39.98125184 90.83475177 -40.0390625 86.8359375 C-40.06811172 85.60830185 -40.06811172 85.60830185 -40.0977478 84.35586548 C-40.15761082 81.73735024 -40.20395532 79.11879119 -40.25 76.5 C-40.28817364 74.72654314 -40.32722501 72.95310495 -40.3671875 71.1796875 C-40.46331771 66.82827625 -40.54732351 62.47677821 -40.625 58.125 C-41.285 58.125 -41.945 58.125 -42.625 58.125 C-42.625 58.785 -42.625 59.445 -42.625 60.125 C-43.285 60.125 -43.945 60.125 -44.625 60.125 C-44.625 60.785 -44.625 61.445 -44.625 62.125 C-45.285 62.125 -45.945 62.125 -46.625 62.125 C-46.625 62.785 -46.625 63.445 -46.625 64.125 C-47.285 64.125 -47.945 64.125 -48.625 64.125 C-48.625 64.785 -48.625 65.445 -48.625 66.125 C-54.98397436 67.47016765 -54.98397436 67.47016765 -58.0625 65.8125 C-59.625 64.125 -59.625 64.125 -59.625 62.125 C-60.285 62.125 -60.945 62.125 -61.625 62.125 C-61.625 61.465 -61.625 60.805 -61.625 60.125 C-62.223125 59.83625 -62.82125 59.5475 -63.4375 59.25 C-65.625 58.125 -65.625 58.125 -68.625 56.125 C-70.26948758 57.10238377 -70.26948758 57.10238377 -71.625 59.125 C-71.94418432 61.97670425 -72.08981803 64.62170995 -72.1015625 67.4765625 C-72.11714203 68.29119965 -72.13272156 69.10583679 -72.14877319 69.94515991 C-72.19630972 72.54676372 -72.22406743 75.14809866 -72.25 77.75 C-72.28644723 80.35885401 -72.32701064 82.96755413 -72.37265015 85.57626343 C-72.39995169 87.19989029 -72.42127022 88.82363035 -72.43618774 90.44741821 C-72.51433798 96.01433798 -72.51433798 96.01433798 -73.625 97.125 C-76.3023138 97.22481214 -78.94804175 97.26379875 -81.625 97.25 C-82.75035156 97.25580078 -82.75035156 97.25580078 -83.8984375 97.26171875 C-89.49838947 97.25161053 -89.49838947 97.25161053 -90.625 96.125 C-90.78120555 94.71172053 -90.87556173 93.2914541 -90.94140625 91.87109375 C-90.98330078 91.01708984 -91.02519531 90.16308594 -91.06835938 89.28320312 C-91.10767578 88.38537109 -91.14699219 87.48753906 -91.1875 86.5625 C-91.23068359 85.66080078 -91.27386719 84.75910156 -91.31835938 83.83007812 C-91.42478142 81.59521515 -91.52679988 79.36023692 -91.625 77.125 C-92.40875 77.95 -93.1925 78.775 -94 79.625 C-96.625 82.125 -96.625 82.125 -98.625 82.125 C-98.625 82.785 -98.625 83.445 -98.625 84.125 C-99.285 84.125 -99.945 84.125 -100.625 84.125 C-101.12 85.61 -101.12 85.61 -101.625 87.125 C-111.20569109 87.3354254 -120.78556261 87.49438526 -130.36807728 87.59130955 C-134.8198761 87.63787763 -139.27007124 87.70081608 -143.72094727 87.80395508 C-182.46870105 88.67883869 -182.46870105 88.67883869 -196.625 78.125 C-198.14991998 75.07516004 -197.86062548 72.4826631 -197.625 69.125 C-196.34739017 67.41969395 -196.34739017 67.41969395 -194.625 66.125 C-191.65451552 65.90846553 -188.90383285 65.87345901 -185.94116211 65.97827148 C-184.09911871 66.01709135 -182.25707247 66.0557761 -180.4150238 66.09434509 C-179.43642332 66.12023146 -178.45782284 66.14611782 -177.44956779 66.17278862 C-172.24248075 66.2980522 -167.03441596 66.33326374 -161.82617188 66.38476562 C-155.20860151 66.45593209 -148.59449866 66.55244164 -141.97924805 66.74536133 C-114.77266062 68.94837171 -114.77266062 68.94837171 -91.01527405 58.5849762 C-88.26244579 55.48100682 -85.84897054 52.33101093 -83.7436676 48.75453186 C-83.18992714 47.94791359 -83.18992714 47.94791359 -82.625 47.125 C-81.965 47.125 -81.305 47.125 -80.625 47.125 C-80.625 46.465 -80.625 45.805 -80.625 45.125 C-79.965 45.125 -79.305 45.125 -78.625 45.125 C-78.625 44.465 -78.625 43.805 -78.625 43.125 C-77.965 43.125 -77.305 43.125 -76.625 43.125 C-76.625 42.465 -76.625 41.805 -76.625 41.125 C-75.965 41.125 -75.305 41.125 -74.625 41.125 C-74.625 40.465 -74.625 39.805 -74.625 39.125 C-70.54111058 35.15455195 -70.54111058 35.15455195 -67.6875 35.0625 C-64.54454823 36.68159637 -62.21752002 38.70924271 -59.625 41.125 C-59.625 41.785 -59.625 42.445 -59.625 43.125 C-58.965 43.125 -58.305 43.125 -57.625 43.125 C-57.625 43.785 -57.625 44.445 -57.625 45.125 C-56.965 45.125 -56.305 45.125 -55.625 45.125 C-55.625 45.785 -55.625 46.445 -55.625 47.125 C-53.1517341 45.72125449 -50.95560832 44.45560832 -48.9375 42.4375 C-48.504375 42.004375 -48.07125 41.57125 -47.625 41.125 C-46.965 41.125 -46.305 41.125 -45.625 41.125 C-44.965 39.805 -44.305 38.485 -43.625 37.125 C-42.965 37.125 -42.305 37.125 -41.625 37.125 C-41.37878906 36.53976563 -41.13257813 35.95453125 -40.87890625 35.3515625 C-39.43126232 32.78097983 -37.83257518 31.37044307 -35.5625 29.5 C-32.64624288 27.17014448 -32.64624288 27.17014448 -30.625 24.125 C-29.965 24.125 -29.305 24.125 -28.625 24.125 C-28.625 23.465 -28.625 22.805 -28.625 22.125 C-27.965 22.125 -27.305 22.125 -26.625 22.125 C-26.625 21.465 -26.625 20.805 -26.625 20.125 C-25.635 19.63 -25.635 19.63 -24.625 19.125 C-25.98870299 16.13279732 -27.57408083 13.83473471 -29.75 11.375 C-30.28882813 10.76140625 -30.82765625 10.1478125 -31.3828125 9.515625 C-31.79273438 9.05671875 -32.20265625 8.5978125 -32.625 8.125 C-31.93359375 6.19921875 -31.93359375 6.19921875 -30.625 4.125 C-28.41015625 3.33203125 -28.41015625 3.33203125 -25.6875 2.9375 C-24.70910156 2.79054687 -23.73070312 2.64359375 -22.72265625 2.4921875 C-18.79977696 2.02718037 -14.87784228 1.65172859 -10.9375 1.37109375 C-7.11789685 0.96461571 -3.92816855 -0.01036456 0 0 Z " fill="#B43924" transform="translate(350.625,161.875)"/>
<path d="M0 0 C1.66342837 1.66342837 1.36048097 3.7825709 1.5625 6.0625 C1.64628906 6.98160156 1.73007812 7.90070313 1.81640625 8.84765625 C1.87699219 9.55792969 1.93757813 10.26820313 2 11 C1.01 11.66 0.02 12.32 -1 13 C-3.6875 12.125 -3.6875 12.125 -6 11 C-8.54106009 13.20961747 -9.30621489 14.73988358 -10 18 C-3.56688704 18.09507063 2.65758005 18.15316726 9 17 C9 13.04 9 9.08 9 5 C17.49609375 4.90234375 17.49609375 4.90234375 20 5 C21 6 21 6 21.09765625 8.72265625 C21.08605469 9.82480469 21.07445312 10.92695313 21.0625 12.0625 C21.05347656 13.16722656 21.04445313 14.27195312 21.03515625 15.41015625 C21.02355469 16.26480469 21.01195312 17.11945313 21 18 C23.97 17.67 26.94 17.34 30 17 C32.125 23.625 32.125 23.625 31 27 C27.7 27 24.4 27 21 27 C21.495 38.385 21.495 38.385 22 50 C24.97 50 27.94 50 31 50 C32.58867866 51.58867866 32.20794039 53.24689516 32.25 55.4375 C32.27578125 56.24058594 32.3015625 57.04367187 32.328125 57.87109375 C32.21984375 58.57363281 32.1115625 59.27617187 32 60 C27.92142408 62.71905061 24.78263355 62.50134095 20 62 C15.71749766 60.73631079 13.58274816 59.65942555 10.625 56.3125 C7.36701854 49.6712301 7.92866459 42.69457168 8.4375 35.5 C8.7159375 31.2925 8.7159375 31.2925 9 27 C2.73 27 -3.54 27 -10 27 C-10 38.22 -10 49.44 -10 61 C-17 62 -17 62 -21 62 C-22.47206013 59.05587973 -22.23807192 56.03714085 -22.31640625 52.8046875 C-22.33718735 52.09724396 -22.35796844 51.38980042 -22.37937927 50.66091919 C-22.44481078 48.39904575 -22.50372974 46.13705538 -22.5625 43.875 C-22.60569133 42.34243578 -22.64930582 40.80988343 -22.69335938 39.27734375 C-22.80048555 35.51834927 -22.9017709 31.75923708 -23 28 C-23.61875 27.87625 -24.2375 27.7525 -24.875 27.625 C-27 27 -27 27 -29 25 C-30.49583476 27.99166952 -30.20459617 30.791374 -30.28125 34.125 C-30.29965942 34.8277002 -30.31806885 35.53040039 -30.33703613 36.25439453 C-30.39583136 38.50284404 -30.4486329 40.75136924 -30.5 43 C-30.56758309 45.95849699 -30.64124936 48.91674807 -30.71875 51.875 C-30.76418945 53.85113281 -30.76418945 53.85113281 -30.81054688 55.8671875 C-31 59 -31 59 -32 61 C-35.32926385 61.92479551 -38.55799455 62.3721087 -42 62 C-44.60876023 58.08685966 -44.26967935 54.78251575 -44.23046875 50.24609375 C-44.23001053 49.38943619 -44.22955231 48.53277863 -44.2290802 47.65016174 C-44.22606053 45.84040948 -44.21818273 44.03065976 -44.20581055 42.22094727 C-44.18754757 39.44473101 -44.18530095 36.66884819 -44.18554688 33.89257812 C-44.1806318 32.13541377 -44.17480353 30.37825169 -44.16796875 28.62109375 C-44.16685593 27.78775009 -44.1657431 26.95440643 -44.16459656 26.09580994 C-44.11607452 20.23214903 -44.11607452 20.23214903 -43 18 C-41.25008666 17.97284617 -39.50005055 17.95353449 -37.75 17.9375 C-36.28820312 17.92009766 -36.28820312 17.92009766 -34.796875 17.90234375 C-32 18 -32 18 -29.7734375 18.5625 C-27.29501544 19.17391689 -26.16054064 18.22430636 -24 17 C-23.34 17 -22.68 17 -22 17 C-22.061875 15.989375 -22.12375 14.97875 -22.1875 13.9375 C-21.97446335 9.46373026 -21.26121963 6.86595615 -19 3 C-13.07868738 -2.03941499 -7.41615676 -1.36859675 0 0 Z M1 21 C2 25 2 25 2 25 Z " fill="#B8412C" transform="translate(391,283)"/>
<path d="M0 0 C3.63 0 7.26 0 11 0 C12.81059513 7.58582192 13.16597087 14.32892368 12.79296875 22.09765625 C12.72569328 23.77087196 12.72569328 23.77087196 12.65705872 25.47789001 C12.56078576 27.81517038 12.45879237 30.15222157 12.35131836 32.48901367 C12.18657235 36.08273558 12.04009314 39.6768615 11.89648438 43.27148438 C11.80053415 45.54691973 11.70356595 47.82231244 11.60546875 50.09765625 C11.56060837 51.17668716 11.51574799 52.25571808 11.4695282 53.3674469 C11.39989616 54.85050575 11.39989616 54.85050575 11.32885742 56.36352539 C11.26984505 57.67396568 11.26984505 57.67396568 11.2096405 59.01087952 C11 61 11 61 10 62 C3.47457627 62.23728814 3.47457627 62.23728814 1 61 C1 60.01 1 59.02 1 58 C0.195625 58.474375 -0.60875 58.94875 -1.4375 59.4375 C-7.03602614 61.89299392 -11.8113414 62.43055579 -17.8125 61.25 C-20.70533077 60.11555656 -22.76580871 59.14482364 -25 57 C-25 56.34 -25 55.68 -25 55 C-25.66 55 -26.32 55 -27 55 C-27.48198463 53.75108386 -27.96045677 52.50081192 -28.4375 51.25 C-28.70433594 50.55390625 -28.97117188 49.8578125 -29.24609375 49.140625 C-32.07265672 41.11494362 -30.91205677 34.78560255 -28 27 C-27.67 26.01 -27.34 25.02 -27 24 C-26.34 24 -25.68 24 -25 24 C-24.835 23.401875 -24.67 22.80375 -24.5 22.1875 C-22.14292757 18.75010271 -18.95262719 17.9603214 -15 17 C-9.28727976 16.21130355 -6.36845619 17.3157719 -1 20 C-0.67 13.4 -0.34 6.8 0 0 Z M-17 31 C-19.73397441 35.44752175 -19.64811682 39.92992158 -19 45 C-17.65021698 48.16821233 -17.65021698 48.16821233 -15 50 C-11.38096294 50.98701011 -8.90646745 51.20601533 -5.25 50.375 C-2.25652239 48.54565257 -1.32200012 47.27021081 0 44 C0.70950217 39.31036371 0.3756447 35.87650429 -1.5 31.5 C-4.41135063 28.58864937 -6.01714076 28.03763046 -10.03515625 27.828125 C-13.02938901 28.09004596 -14.73287484 29.0662756 -17 31 Z " fill="#B74833" transform="translate(178,283)"/>
<path d="M0 0 C4.57238919 2.7339077 6.86548054 6.59579218 8.5625 11.5625 C9.30966443 15.56867771 9.81050215 19.48636218 9.5625 23.5625 C6.84586207 26.27913793 5.26055347 25.87003121 1.4609375 25.9765625 C0.24921875 26.01523437 -0.9625 26.05390625 -2.2109375 26.09375 C-3.48195312 26.1246875 -4.75296875 26.155625 -6.0625 26.1875 C-7.34125 26.22617187 -8.62 26.26484375 -9.9375 26.3046875 C-13.10402017 26.39921049 -16.2705304 26.48476357 -19.4375 26.5625 C-19.17073796 28.54741642 -19.17073796 28.54741642 -18.4375 30.5625 C-14.12595534 31.99968155 -9.94375984 32.14251364 -5.4375 31.5625 C-3.14460528 29.60440477 -3.14460528 29.60440477 -1.4375 27.5625 C2.42377424 27.65903186 4.67006118 29.09857063 7.5625 31.5625 C7.2325 33.2125 6.9025 34.8625 6.5625 36.5625 C5.9025 36.5625 5.2425 36.5625 4.5625 36.5625 C4.5625 37.2225 4.5625 37.8825 4.5625 38.5625 C3.9025 38.5625 3.2425 38.5625 2.5625 38.5625 C2.5625 39.2225 2.5625 39.8825 2.5625 40.5625 C-5.95519318 44.27931157 -12.55111816 44.58386983 -21.4375 41.5625 C-22.4275 41.2325 -23.4175 40.9025 -24.4375 40.5625 C-24.4375 39.9025 -24.4375 39.2425 -24.4375 38.5625 C-25.0975 38.5625 -25.7575 38.5625 -26.4375 38.5625 C-26.4375 37.9025 -26.4375 37.2425 -26.4375 36.5625 C-27.0975 36.5625 -27.7575 36.5625 -28.4375 36.5625 C-33.22099288 29.23777653 -33.4101528 22.15738386 -32.4375 13.5625 C-31.41196611 10.4549555 -30.24022107 8.32291664 -28.4375 5.5625 C-27.7775 5.5625 -27.1175 5.5625 -26.4375 5.5625 C-26.4375 4.9025 -26.4375 4.2425 -26.4375 3.5625 C-18.12765204 -1.29797711 -9.45575326 -3.96997274 0 0 Z M-18.4375 10.5625 C-19.0975 12.5425 -19.7575 14.5225 -20.4375 16.5625 C-14.4975 16.5625 -8.5575 16.5625 -2.4375 16.5625 C-2.4375 15.2425 -2.4375 13.9225 -2.4375 12.5625 C-3.0975 12.5625 -3.7575 12.5625 -4.4375 12.5625 C-5.0975 11.2425 -5.7575 9.9225 -6.4375 8.5625 C-12.84763725 8.04949763 -12.84763725 8.04949763 -18.4375 10.5625 Z " fill="#B2341F" transform="translate(227.4375,301.4375)"/>
<path d="M0 0 C5.4879843 3.7498285 8.32723314 8.26377133 10.1484375 14.6015625 C11.48425353 22.05244744 9.46005668 29.56388317 5.23046875 35.765625 C1.38162811 39.91191702 -3.53133213 42.15708745 -9.09765625 42.93359375 C-16.57575359 43.12533984 -21.91360111 41.15501359 -28.01953125 36.9765625 C-29.74487569 35.25597107 -30.04889184 33.93452385 -30.4375 31.5625 C-31.0975 31.5625 -31.7575 31.5625 -32.4375 31.5625 C-35.13665364 25.32070721 -35.52813702 18.584224 -33.75 12.02734375 C-31.07743322 5.3570625 -27.50062032 2.33910979 -21.3125 -1.25 C-14.21014505 -3.94669989 -6.6636876 -3.58048886 0 0 Z M-18.4375 9.5625 C-18.4375 10.2225 -18.4375 10.8825 -18.4375 11.5625 C-19.0975 11.5625 -19.7575 11.5625 -20.4375 11.5625 C-22.71812828 14.98344242 -22.65675007 16.24437222 -22.5625 20.25 C-22.54445313 21.24386719 -22.52640625 22.23773438 -22.5078125 23.26171875 C-22.48460938 24.02097656 -22.46140625 24.78023438 -22.4375 25.5625 C-21.7775 25.5625 -21.1175 25.5625 -20.4375 25.5625 C-20.210625 26.18125 -19.98375 26.8 -19.75 27.4375 C-18.00922731 30.25589387 -16.59281182 30.68194786 -13.4375 31.5625 C-9.65439175 32.24151943 -8.54574484 31.63254078 -5.25 29.5 C-2.05898496 26.56525819 -0.96293453 23.91610037 -0.4375 19.5625 C-2.2744672 13.7347967 -2.2744672 13.7347967 -6.4375 9.5625 C-10.5019978 8.60716932 -14.44491196 8.06527948 -18.4375 9.5625 Z " fill="#B44230" transform="translate(106.4375,302.4375)"/>
<path d="M0 0 C3.94189176 2.28977536 7.09524098 4.5487963 8.6875 8.984375 C8.375 11.234375 8.375 11.234375 6.6875 12.984375 C3.98934673 13.90540763 1.53025733 14.24695901 -1.3125 13.984375 C-2.68812854 12.69472324 -4.02016393 11.35748207 -5.3125 9.984375 C-8.00881738 9.32597192 -10.52630544 9.1701213 -13.3125 8.984375 C-12.9825 10.634375 -12.6525 12.284375 -12.3125 13.984375 C-11.63703125 14.10554688 -10.9615625 14.22671875 -10.265625 14.3515625 C-9.37359375 14.51914062 -8.4815625 14.68671875 -7.5625 14.859375 C-6.68078125 15.02179688 -5.7990625 15.18421875 -4.890625 15.3515625 C-2.42245013 15.95738724 -0.52521402 16.75771051 1.6875 17.984375 C2.533125 18.438125 3.37875 18.891875 4.25 19.359375 C8.04698557 21.89069871 9.34329498 23.86570869 10.6875 28.234375 C10.6875 33.35361007 9.09836088 36.23161398 5.6875 39.984375 C0.75188282 43.96183625 -4.41775755 44.54024119 -10.61328125 44.32421875 C-14.54897113 43.82869774 -17.70610249 42.61746066 -21.3125 40.984375 C-21.3125 40.324375 -21.3125 39.664375 -21.3125 38.984375 C-21.9725 38.984375 -22.6325 38.984375 -23.3125 38.984375 C-23.3125 38.324375 -23.3125 37.664375 -23.3125 36.984375 C-23.9725 36.984375 -24.6325 36.984375 -25.3125 36.984375 C-25.9725 35.004375 -26.6325 33.024375 -27.3125 30.984375 C-25.11452597 28.78640097 -24.13703855 28.52539983 -21.1875 27.859375 C-19.90875 27.570625 -18.63 27.281875 -17.3125 26.984375 C-14.3125 30.734375 -14.3125 30.734375 -14.3125 32.984375 C-10.3525 32.984375 -6.3925 32.984375 -2.3125 32.984375 C-2.3125 31.334375 -2.3125 29.684375 -2.3125 27.984375 C-3.47007812 27.75363281 -4.62765625 27.52289063 -5.8203125 27.28515625 C-7.35957299 26.95665554 -8.89862488 26.62717632 -10.4375 26.296875 C-11.57832031 26.07354492 -11.57832031 26.07354492 -12.7421875 25.84570312 C-18.18978783 24.64817029 -21.39468133 22.99983402 -25.3125 18.984375 C-26.74206766 14.07023615 -26.51690564 10.59358679 -24.3125 5.984375 C-17.89006211 -1.9060487 -9.28631108 -4.07844743 0 0 Z " fill="#B23B24" transform="translate(295.3125,301.015625)"/>
<path d="M0 0 C0 14.85 0 29.7 0 45 C4.455 44.505 4.455 44.505 9 44 C11.16548056 43.91708746 13.33293993 43.86941479 15.5 43.875 C17.03140625 43.87113281 17.03140625 43.87113281 18.59375 43.8671875 C21 44 21 44 22 45 C22.07226502 46.85287502 22.0838122 48.70833878 22.0625 50.5625 C22.05347656 51.57441406 22.04445313 52.58632813 22.03515625 53.62890625 C22.02355469 54.41136719 22.01195312 55.19382812 22 56 C16.57207973 59.32999718 10.08981459 58.32788848 3.9375 58.3125 C2.64521484 58.32861328 1.35292969 58.34472656 0.02148438 58.36132812 C-1.21408203 58.36197266 -2.44964844 58.36261719 -3.72265625 58.36328125 C-5.42047241 58.36775269 -5.42047241 58.36775269 -7.15258789 58.37231445 C-10 58 -10 58 -11.65667725 56.81356812 C-13.49752923 54.32830502 -13.36169523 52.68693899 -13.34057617 49.6105957 C-13.34034958 48.50968094 -13.34012299 47.40876617 -13.33988953 46.27449036 C-13.32440567 45.08691635 -13.30892181 43.89934235 -13.29296875 42.67578125 C-13.28872391 41.45924362 -13.28447906 40.24270599 -13.28010559 38.98930359 C-13.26328851 35.09681229 -13.22562959 31.20483529 -13.1875 27.3125 C-13.17245713 24.67643976 -13.15876804 22.04037142 -13.14648438 19.40429688 C-13.11337499 12.9360219 -13.06314505 6.46804769 -13 0 C-11 -1 -11 -1 0 0 Z " fill="#BC4532" transform="translate(322,287)"/>
<path d="M0 0 C4.32400207 0.02062322 4.32400207 0.02062322 6.6875 2.3125 C6.996875 2.9725 7.30625 3.6325 7.625 4.3125 C8.17671875 3.83167969 8.7284375 3.35085938 9.296875 2.85546875 C11.98643493 1.07295839 13.68321418 0.83498591 16.875 0.625 C17.76703125 0.55925781 18.6590625 0.49351562 19.578125 0.42578125 C20.25359375 0.38839844 20.9290625 0.35101563 21.625 0.3125 C21.84651549 2.10258467 22.05182213 3.89468162 22.25 5.6875 C22.42402344 7.18410156 22.42402344 7.18410156 22.6015625 8.7109375 C22.60929687 9.56945312 22.61703125 10.42796875 22.625 11.3125 C20.625 13.3125 20.625 13.3125 16.6875 13.375 C15.65302734 13.33052734 15.65302734 13.33052734 14.59765625 13.28515625 C12.40993865 13.21582679 12.40993865 13.21582679 9.625 14.3125 C9.625 14.9725 9.625 15.6325 9.625 16.3125 C8.965 16.3125 8.305 16.3125 7.625 16.3125 C7.295 25.5525 6.965 34.7925 6.625 44.3125 C2.54233314 45.67338895 -0.13428101 44.99648693 -4.375 44.3125 C-6.32363925 42.36386075 -5.5041874 39.4144128 -5.51394653 36.82128906 C-5.5119223 35.91088867 -5.50989807 35.00048828 -5.5078125 34.0625 C-5.50876923 33.13405273 -5.50972595 32.20560547 -5.51071167 31.24902344 C-5.51139355 29.28190035 -5.50953872 27.31477504 -5.50537109 25.34765625 C-5.50002295 22.32546974 -5.50531582 19.30343185 -5.51171875 16.28125 C-5.51105797 14.37499967 -5.50977681 12.46874943 -5.5078125 10.5625 C-5.50983673 9.65209961 -5.51186096 8.74169922 -5.51394653 7.80371094 C-5.48521219 0.16863921 -5.48521219 0.16863921 0 0 Z " fill="#B23A25" transform="translate(125.375,299.6875)"/>
<path d="M0 0 C3.625 0.125 3.625 0.125 6.625 1.125 C6.955 2.115 7.285 3.105 7.625 4.125 C8.305625 3.650625 8.98625 3.17625 9.6875 2.6875 C13.06410393 0.89143408 15.83044789 0.41688862 19.625 0.125 C21.17883208 1.67883208 21.00672542 3.35223296 21.25 5.5 C21.34539062 6.29148437 21.44078125 7.08296875 21.5390625 7.8984375 C21.625 10.125 21.625 10.125 20.625 13.125 C16.995 13.455 13.365 13.785 9.625 14.125 C8.56681592 17.29955224 8.43846756 19.73353364 8.34375 23.0703125 C8.30636719 24.22917969 8.26898438 25.38804687 8.23046875 26.58203125 C8.15993179 29.03514981 8.08962072 31.48827487 8.01953125 33.94140625 C7.98214844 35.09769531 7.94476563 36.25398438 7.90625 37.4453125 C7.86081055 39.04270264 7.86081055 39.04270264 7.81445312 40.67236328 C7.625 43.125 7.625 43.125 6.625 44.125 C4.77212498 44.19726502 2.91666122 44.2088122 1.0625 44.1875 C0.05058594 44.17847656 -0.96132812 44.16945313 -2.00390625 44.16015625 C-2.78636719 44.14855469 -3.56882813 44.13695312 -4.375 44.125 C-4.39964513 38.0194529 -4.41783371 31.91393449 -4.42993164 25.80834961 C-4.43497288 23.72956844 -4.44180574 21.65079084 -4.45043945 19.57202148 C-4.46251422 16.59097414 -4.46823024 13.60997351 -4.47265625 10.62890625 C-4.48039818 9.22578941 -4.48039818 9.22578941 -4.48829651 7.79432678 C-4.48837204 6.93350998 -4.48844757 6.07269318 -4.48852539 5.18579102 C-4.490746 4.42412125 -4.49296661 3.66245148 -4.49525452 2.87770081 C-4.27190904 -0.37754317 -3.33657614 0.12357689 0 0 Z " fill="#B63D29" transform="translate(246.375,299.875)"/>
<path d="M0 0 C0.33 0 0.66 0 1 0 C1.96817225 7.02038729 2.00532447 13.70956652 1.6953125 20.78125 C1.63015945 22.42329407 1.63015945 22.42329407 1.56369019 24.09851074 C1.47102455 26.39458423 1.37503638 28.69052583 1.27587891 30.98632812 C1.12428619 34.51662329 0.98522884 38.0472585 0.84765625 41.578125 C0.75594618 43.81253041 0.66352399 46.04690672 0.5703125 48.28125 C0.52858917 49.34154419 0.48686584 50.40183838 0.44387817 51.4942627 C0.40068451 52.46617554 0.35749084 53.43808838 0.31298828 54.43945312 C0.25850021 55.72777039 0.25850021 55.72777039 0.20291138 57.04211426 C0 59 0 59 -1 60 C-7.52542373 60.23728814 -7.52542373 60.23728814 -10 59 C-10 58.01 -10 57.02 -10 56 C-10.804375 56.474375 -11.60875 56.94875 -12.4375 57.4375 C-18.03602614 59.89299392 -22.8113414 60.43055579 -28.8125 59.25 C-31.70533077 58.11555656 -33.76580871 57.14482364 -36 55 C-36 54.34 -36 53.68 -36 53 C-36.66 53 -37.32 53 -38 53 C-38.33 51.68 -38.66 50.36 -39 49 C-38.34 49 -37.68 49 -37 49 C-36.34 48.34 -35.68 47.68 -35 47 C-34.80664062 47.56589844 -34.61328125 48.13179688 -34.4140625 48.71484375 C-34.02347656 49.81505859 -34.02347656 49.81505859 -33.625 50.9375 C-33.36976563 51.66839844 -33.11453125 52.39929688 -32.8515625 53.15234375 C-32.14728587 55.18682116 -32.14728587 55.18682116 -30 56 C-29.71125 55.401875 -29.4225 54.80375 -29.125 54.1875 C-28 52 -28 52 -26 49 C-24.08203125 48.69921875 -24.08203125 48.69921875 -21.8125 48.6875 C-17.16482517 48.31147453 -14.59892014 46.89352884 -11.2421875 43.69921875 C-9.71035737 41.8899972 -9.71035737 41.8899972 -9.5625 38.625 C-9.706875 37.75875 -9.85125 36.8925 -10 36 C-7.03 35.505 -7.03 35.505 -4 35 C-3.67 35.66 -3.34 36.32 -3 37 C-2.94465088 36.0212793 -2.88930176 35.04255859 -2.83227539 34.03417969 C-2.62551838 30.39609332 -2.41373147 26.75831407 -2.20043945 23.12060547 C-2.10890113 21.54744235 -2.01871913 19.97419968 -1.92993164 18.40087891 C-1.8019258 16.13682025 -1.66901273 13.87309436 -1.53515625 11.609375 C-1.47727684 10.55759064 -1.47727684 10.55759064 -1.41822815 9.48455811 C-1.22063769 6.21964773 -0.95998697 3.13666072 0 0 Z " fill="#B43E2A" transform="translate(189,285)"/>
<path d="M0 0 C3.63 0 7.26 0 11 0 C11 14.19 11 28.38 11 43 C4.24561404 44.35087719 4.24561404 44.35087719 1 44 C-1.60876023 40.08685966 -1.26967935 36.78251575 -1.23046875 32.24609375 C-1.23001053 31.38943619 -1.22955231 30.53277863 -1.2290802 29.65016174 C-1.22606053 27.84040948 -1.21818273 26.03065976 -1.20581055 24.22094727 C-1.18754757 21.44473101 -1.18530095 18.66884819 -1.18554688 15.89257812 C-1.1806318 14.13541377 -1.17480353 12.37825169 -1.16796875 10.62109375 C-1.16685593 9.78775009 -1.1657431 8.95440643 -1.16459656 8.09580994 C-1.11607452 2.23214903 -1.11607452 2.23214903 0 0 Z " fill="#B13824" transform="translate(348,301)"/>
<path d="M0 0 C1.916588 -0.02712153 3.8332873 -0.04645097 5.75 -0.0625 C7.35101563 -0.07990234 7.35101563 -0.07990234 8.984375 -0.09765625 C11.55099163 -0.01454043 13.60199817 0.10915353 16 1 C17.76078179 4.52156358 17.184646 8.55891951 17.1875 12.4375 C17.19974609 13.30955078 17.21199219 14.18160156 17.22460938 15.08007812 C17.22750977 16.33788086 17.22750977 16.33788086 17.23046875 17.62109375 C17.23457764 18.3886499 17.23868652 19.15620605 17.24291992 19.94702148 C17 22 17 22 15 25 C12.37302936 25.22137393 9.99106036 25.28162025 7.375 25.1875 C6.66859375 25.17396484 5.9621875 25.16042969 5.234375 25.14648438 C3.48925872 25.1111104 1.74453392 25.05730221 0 25 C-1.57576364 20.11638333 -2.27261481 15.99694559 -2.25 10.8125 C-2.25515625 9.62269531 -2.2603125 8.43289062 -2.265625 7.20703125 C-2.01664342 4.2009448 -1.57783544 2.52328446 0 0 Z " fill="#B53C27" transform="translate(287,234)"/>
<path d="M0 0 C3.0929835 2.61713988 4.8104726 4.44194711 6.125 8.3125 C5.95412739 13.35324196 4.36786844 16.29454092 1 20 C-3.93561718 23.97746125 -9.10525755 24.55586619 -15.30078125 24.33984375 C-19.23647113 23.84432274 -22.39360249 22.63308566 -26 21 C-26 20.34 -26 19.68 -26 19 C-26.66 19 -27.32 19 -28 19 C-28 18.34 -28 17.68 -28 17 C-28.66 17 -29.32 17 -30 17 C-30.66 15.02 -31.32 13.04 -32 11 C-29.80202597 8.80202597 -28.82453855 8.54102483 -25.875 7.875 C-24.59625 7.58625 -23.3175 7.2975 -22 7 C-19 10.75 -19 10.75 -19 13 C-15.7 13 -12.4 13 -9 13 C-8.6596875 14.2065625 -8.6596875 14.2065625 -8.3125 15.4375 C-7.879375 16.283125 -7.44625 17.12875 -7 18 C-4.45224694 18.89386164 -4.45224694 18.89386164 -2 19 C-2 17.02 -2 15.04 -2 13 C-1.01 12.67 -0.02 12.34 1 12 C1.66 12.33 2.32 12.66 3 13 C2.73606499 9.56769552 2.73606499 9.56769552 2 6 C1.01 5.34 0.02 4.68 -1 4 C-0.67 2.68 -0.34 1.36 0 0 Z " fill="#B1341D" transform="translate(300,321)"/>
<path d="M0 0 C3.63 0 7.26 0 11 0 C10.0125055 30.5392995 10.0125055 30.5392995 9 42 C7 39 7 39 7 37 C5.35 37.66 3.7 38.32 2 39 C1.7773254 37.56465159 1.57238094 36.12654475 1.375 34.6875 C1.20097656 33.48673828 1.20097656 33.48673828 1.0234375 32.26171875 C1 30 1 30 3 27 C4.2546857 23.23594291 3.49390018 22.19160551 2.0625 18.5625 C-0.22593011 12.1218668 -0.32369732 6.79764369 0 0 Z " fill="#B43822" transform="translate(178,283)"/>
<path d="M0 0 C0.33 0 0.66 0 1 0 C1.33 17.49 1.66 34.98 2 53 C3.65 53 5.3 53 7 53 C7 52.34 7 51.68 7 51 C7.99 50.34 8.98 49.68 10 49 C10.33 47.68 10.66 46.36 11 45 C17.93 45 24.86 45 32 45 C32 47.97 32 50.94 32 54 C26.68413708 55.77195431 21.00199491 55.71874896 15.4375 56.125 C14.18001953 56.22425781 12.92253906 56.32351563 11.62695312 56.42578125 C10.42876953 56.51472656 9.23058594 56.60367188 7.99609375 56.6953125 C6.34371704 56.8193042 6.34371704 56.8193042 4.65795898 56.94580078 C2 57 2 57 0 56 C0 37.52 0 19.04 0 0 Z " fill="#AA3420" transform="translate(310,288)"/>
<path d="M0 0 C3.86127424 0.09653186 6.10756118 1.53607063 9 4 C8.67 5.65 8.34 7.3 8 9 C7.34 9 6.68 9 6 9 C6 9.66 6 10.32 6 11 C5.34 11 4.68 11 4 11 C4 11.66 4 12.32 4 13 C-4.51769318 16.71681157 -11.11361816 17.02136983 -20 14 C-20.99 13.67 -21.98 13.34 -23 13 C-23 12.34 -23 11.68 -23 11 C-23.66 11 -24.32 11 -25 11 C-25 10.34 -25 9.68 -25 9 C-25.66 9 -26.32 9 -27 9 C-28.06775224 7.03533587 -29.06553465 5.03144641 -30 3 C-29.67 2.34 -29.34 1.68 -29 1 C-28.34 1 -27.68 1 -27 1 C-27 1.99 -27 2.98 -27 4 C-26.34 4 -25.68 4 -25 4 C-24.67 5.98 -24.34 7.96 -24 10 C-21.36 10.33 -18.72 10.66 -16 11 C-15.67 10.01 -15.34 9.02 -15 8 C-14.34 8 -13.68 8 -13 8 C-13 7.01 -13 6.02 -13 5 C-12.09507812 4.96132813 -12.09507812 4.96132813 -11.171875 4.921875 C-5.83012844 4.54278331 -3.72713883 3.99336303 0 0 Z " fill="#B53F2B" transform="translate(226,329)"/>
<path d="M0 0 C4.26609804 4.26609804 5.1104961 7.05770561 5.1328125 13.02734375 C5 15 5 15 4 18 C3.34 18 2.68 18 2 18 C2 17.34 2 16.68 2 16 C1.34 16 0.68 16 0 16 C0.33 13.69 0.66 11.38 1 9 C0.34 9.66 -0.32 10.32 -1 11 C-3.32671854 11.68939809 -5.66067594 12.35466922 -8 13 C-9.34050052 13.65213539 -10.67661368 14.31379969 -12 15 C-12.66 15 -13.32 15 -14 15 C-14.680625 15.185625 -15.36125 15.37125 -16.0625 15.5625 C-17.0215625 15.7790625 -17.0215625 15.7790625 -18 16 C-19.57027317 14.42972683 -19.16974386 12.85730053 -19.1875 10.6875 C-19.20167969 9.90761719 -19.21585938 9.12773438 -19.23046875 8.32421875 C-18.89488643 4.93995639 -18.02217676 2.83833202 -15.37109375 0.6640625 C-9.91190842 -2.26956032 -5.71915114 -2.62315397 0 0 Z " fill="#B33924" transform="translate(257,115)"/>
<path d="M0 0 C1.5625 1.1875 1.5625 1.1875 3 3 C2.6875 5.6875 2.6875 5.6875 2 8 C2.763125 8.12375 3.52625 8.2475 4.3125 8.375 C7 9 7 9 10 11 C8.52725401 16.75709796 6.14862791 19.84715196 1.24609375 23.19921875 C-4.13349148 26.2965557 -8.89527341 26.45034868 -15 26 C-15 25.67 -15 25.34 -15 25 C-12.03 24.67 -9.06 24.34 -6 24 C-6.66 23.01 -7.32 22.02 -8 21 C-8 20.01 -8 19.02 -8 18 C-7.01 18 -6.02 18 -5 18 C-5 17.34 -5 16.68 -5 16 C-6.1446875 16.556875 -6.1446875 16.556875 -7.3125 17.125 C-8.199375 17.41375 -9.08625 17.7025 -10 18 C-10.99 17.34 -11.98 16.68 -13 16 C-12.67 15.34 -12.34 14.68 -12 14 C-10.9171875 14.12375 -10.9171875 14.12375 -9.8125 14.25 C-5.9929175 13.91048156 -4.62514452 12.76704422 -2 10 C-0.70691635 6.49020153 0 3.7358326 0 0 Z M-13 18 C-10 19 -10 19 -10 19 Z " fill="#B43B24" transform="translate(105,319)"/>
<path d="M0 0 C0.598125 0.20625 1.19625 0.4125 1.8125 0.625 C1.8125 1.285 1.8125 1.945 1.8125 2.625 C2.76125 2.686875 3.71 2.74875 4.6875 2.8125 C5.71875 3.080625 6.75 3.34875 7.8125 3.625 C9.1875 6.1875 9.1875 6.1875 9.8125 8.625 C10.4725 8.625 11.1325 8.625 11.8125 8.625 C12.66138195 14.00125234 12.8149305 18.27870398 11.8125 23.625 C9.8325 23.295 7.8525 22.965 5.8125 22.625 C5.8125 21.965 5.8125 21.305 5.8125 20.625 C4.8225 20.625 3.8325 20.625 2.8125 20.625 C2.833125 19.861875 2.85375 19.09875 2.875 18.3125 C2.94192841 15.52314214 2.94192841 15.52314214 1.8125 12.625 C1.1525 12.625 0.4925 12.625 -0.1875 12.625 C-2.22919485 9.71951118 -3.1875 8.22357954 -3.1875 4.625 C-3.8475 4.625 -4.5075 4.625 -5.1875 4.625 C-5.1875 3.635 -5.1875 2.645 -5.1875 1.625 C-2.1875 -0.375 -2.1875 -0.375 0 0 Z " fill="#B33C29" transform="translate(104.1875,306.375)"/>
<path d="M0 0 C2 1.3125 2 1.3125 4 3 C4 3.99 4 4.98 4 6 C5.32 5.34 6.64 4.68 8 4 C8 3.01 8 2.02 8 1 C12.37934119 1.51958285 16.68803391 2.05675742 21 3 C21.08096803 4.45742463 21.13917774 5.91612807 21.1875 7.375 C21.23970703 8.59316406 21.23970703 8.59316406 21.29296875 9.8359375 C21.19628906 10.55007813 21.09960938 11.26421875 21 12 C16.92142408 14.71905061 13.78263355 14.50134095 9 14 C4.58143265 12.69616045 2.50651007 11.56827959 -0.5625 8.125 C-2 5 -2 5 -1.25 2.125 C-0.8375 1.42375 -0.425 0.7225 0 0 Z " fill="#AE321D" transform="translate(402,331)"/>
<path d="M0 0 C0.99 0.33 1.98 0.66 3 1 C2.67 1.99 2.34 2.98 2 4 C2.99 4 3.98 4 5 4 C5.01417969 4.79664063 5.02835938 5.59328125 5.04296875 6.4140625 C5.35558569 13.35922797 5.82153969 17.21988279 11 22 C10.34 22 9.68 22 9 22 C8.566875 22.8971875 8.566875 22.8971875 8.125 23.8125 C7 26 7 26 5 29 C4.01 28.67 3.02 28.34 2 28 C1.71125 27.175 1.4225 26.35 1.125 25.5 C0.75375 24.675 0.3825 23.85 0 23 C-2.54775306 22.10613836 -2.54775306 22.10613836 -5 22 C-5.33 19.69 -5.66 17.38 -6 15 C-5.01 15 -4.02 15 -3 15 C-1.79438816 14.01732141 -1.79438816 14.01732141 -1.90234375 12.15234375 C-1.91394531 11.42144531 -1.92554688 10.69054687 -1.9375 9.9375 C-1.958125 8.638125 -1.97875 7.33875 -2 6 C-1.34 6 -0.68 6 0 6 C-0.99 4.68 -1.98 3.36 -3 2 C-2.01 2 -1.02 2 0 2 C0 1.34 0 0.68 0 0 Z " fill="#B33E2C" transform="translate(154,312)"/>
<path d="M0 0 C1.32 0.66 2.64 1.32 4 2 C3.67 2.33 3.34 2.66 3 3 C4.32 3.66 5.64 4.32 7 5 C6.6875 6.875 6.6875 6.875 6 9 C5.01 9.66 4.02 10.32 3 11 C2.58429992 13.22498915 2.58429992 13.22498915 2.70703125 15.7890625 C2.71669922 16.73007812 2.72636719 17.67109375 2.73632812 18.640625 C2.76146484 19.62546875 2.78660156 20.6103125 2.8125 21.625 C2.82603516 22.61757813 2.83957031 23.61015625 2.85351562 24.6328125 C2.88894257 27.08908072 2.93833804 29.54427285 3 32 C2.67 32 2.34 32 2 32 C1.67 25.73 1.34 19.46 1 13 C-1.97 12.67 -4.94 12.34 -8 12 C-10.00277585 11.68377223 -12.00430399 11.35820185 -14 11 C-14 8.36 -14 5.72 -14 3 C-9.71 3 -5.42 3 -1 3 C-0.67 2.01 -0.34 1.02 0 0 Z " fill="#B2311C" transform="translate(408,299)"/>
<path d="M0 0 C0.22151549 1.79008467 0.42682213 3.58218162 0.625 5.375 C0.79902344 6.87160156 0.79902344 6.87160156 0.9765625 8.3984375 C0.98429687 9.25695312 0.99203125 10.11546875 1 11 C-1 13 -1 13 -4.9375 13.0625 C-5.62714844 13.03285156 -6.31679687 13.00320313 -7.02734375 12.97265625 C-9.21506135 12.90332679 -9.21506135 12.90332679 -12 14 C-12 14.66 -12 15.32 -12 16 C-12.66 16 -13.32 16 -14 16 C-14.33 17.32 -14.66 18.64 -15 20 C-16.07310858 16.72814447 -15.89263102 14.57052408 -15.0625 11.25 C-14.77052734 10.05117188 -14.77052734 10.05117188 -14.47265625 8.828125 C-14.31667969 8.22484375 -14.16070312 7.6215625 -14 7 C-14.66 7 -15.32 7 -16 7 C-14.73721868 3.21165605 -13.47887048 2.77988722 -10 1 C-6.67286218 -0.18059729 -3.50816855 -0.0797311 0 0 Z " fill="#BB5440" transform="translate(147,300)"/>
<path d="M0 0 C8.49609375 -0.09765625 8.49609375 -0.09765625 11 0 C12 1 12 1 12.09765625 3.50390625 C12.08605469 4.51324219 12.07445312 5.52257812 12.0625 6.5625 C12.05347656 7.57441406 12.04445313 8.58632813 12.03515625 9.62890625 C12.02355469 10.41136719 12.01195312 11.19382812 12 12 C10.68 11.67 9.36 11.34 8 11 C8 12.32 8 13.64 8 15 C1.07 14.505 1.07 14.505 -6 14 C-6 16.64 -6 19.28 -6 22 C-6.66 22 -7.32 22 -8 22 C-7.505 17.545 -7.505 17.545 -7 13 C-3.535 12.505 -3.535 12.505 0 12 C0 8.04 0 4.08 0 0 Z " fill="#BD4E32" transform="translate(400,288)"/>
<path d="M0 0 C0.66 1.32 1.32 2.64 2 4 C2.66 4 3.32 4 4 4 C4 4.99 4 5.98 4 7 C4.99 7 5.98 7 7 7 C6.67 6.01 6.34 5.02 6 4 C7.32 4 8.64 4 10 4 C10 4.99 10 5.98 10 7 C9.071875 7.12375 9.071875 7.12375 8.125 7.25 C5.81562433 7.81258459 5.81562433 7.81258459 4.75 10.0625 C4.5025 10.701875 4.255 11.34125 4 12 C3.34 11.34 2.68 10.68 2 10 C1.7834375 11.11375 1.7834375 11.11375 1.5625 12.25 C1 15 1 15 0.3125 17 C-0.12029274 19.76987352 0.82468147 21.51109017 2 24 C1.01 23.67 0.02 23.34 -1 23 C-2.1875 20.4375 -2.1875 20.4375 -3 18 C-3.99 18 -4.98 18 -6 18 C-6.33 20.64 -6.66 23.28 -7 26 C-7.33 26 -7.66 26 -8 26 C-8.738041 10.25512528 -8.738041 10.25512528 -4 3 C-3.34 3 -2.68 3 -2 3 C-2 2.34 -2 1.68 -2 1 C-1.34 0.67 -0.68 0.34 0 0 Z " fill="#BB4A35" transform="translate(203,304)"/>
<path d="M0 0 C1.75 1.5625 1.75 1.5625 3 3 C3 2.01 3 1.02 3 0 C3.763125 0.165 4.52625 0.33 5.3125 0.5 C8.03596236 1.09145396 8.03596236 1.09145396 11 1 C11.99 1 12.98 1 14 1 C14 1.66 14 2.32 14 3 C13.01 3 12.02 3 11 3 C11.99 4.98 12.98 6.96 14 9 C12.07229125 10.92770875 8.81648514 10.30577945 6.25 10.375 C-0.50498399 10.32689737 -0.50498399 10.32689737 -4.3125 7.8125 C-5.9491625 5.08472916 -6.72967641 3.1537752 -7 0 C-3.83170302 -1.05609899 -3.01480825 -1.13055309 0 0 Z " fill="#B0321E" transform="translate(86,334)"/>
<path d="M0 0 C2.45636081 2.07255443 2.88864581 3.36369034 3.4375 6.5 C2.85386541 9.83505482 1.64365659 10.94382265 -1 13 C-2.875 14 -2.875 14 -5 14 C-10.712 10.864 -10.712 10.864 -12 7 C-11.75 4.4375 -11.75 4.4375 -11 2 C-7.22930016 -0.5137999 -4.43146689 -0.74781004 0 0 Z " fill="#B65943" transform="translate(358,283)"/>
<path d="M0 0 C0.33 0 0.66 0 1 0 C1.16276042 2.01822917 1.32552083 4.03645833 1.48828125 6.0546875 C1.87393036 8.39519216 1.87393036 8.39519216 5 10 C5.66 9.01 6.32 8.02 7 7 C9.625 6.3125 9.625 6.3125 12 6 C12 7.65 12 9.3 12 11 C12.66 11 13.32 11 14 11 C15.7143618 12.95927063 17.38405168 14.95880212 19 17 C18.34 17 17.68 17 17 17 C17 17.99 17 18.98 17 20 C15 19 15 19 13 17 C9.91652174 16.83318891 9.91652174 16.83318891 7 17 C7.66 18.98 8.32 20.96 9 23 C7.0625 22.25 7.0625 22.25 5 21 C4.25 18.875 4.25 18.875 4 17 C3.34 17 2.68 17 2 17 C-0.44064587 11.35600642 -0.19289099 6.02248522 0 0 Z " fill="#B54734" transform="translate(72,317)"/>
<path d="M0 0 C7.00389105 3.26848249 7.00389105 3.26848249 9 6 C9.6875 8.6875 9.6875 8.6875 10 11 C6.5590033 13.35954059 4.207839 14.75525315 0 14 C-1.37562854 12.71034824 -2.70766393 11.37310707 -4 10 C-6.63222962 8.74563813 -6.63222962 8.74563813 -9 8 C-6 6 -6 6 -3.9375 5.5625 C-1.60942182 5.11223305 -1.60942182 5.11223305 0 2 C0 1.34 0 0.68 0 0 Z " fill="#B64937" transform="translate(294,301)"/>
<path d="M0 0 C1.26328125 0.01804687 2.5265625 0.03609375 3.828125 0.0546875 C4.79234375 0.07789063 5.7565625 0.10109375 6.75 0.125 C5.76 0.455 4.77 0.785 3.75 1.125 C5.0589572 4.24697478 5.0589572 4.24697478 7.75 6.125 C7.09 6.125 6.43 6.125 5.75 6.125 C5.75 6.785 5.75 7.445 5.75 8.125 C1.295 8.62 1.295 8.62 -3.25 9.125 C-3.25 8.465 -3.25 7.805 -3.25 7.125 C-4.24 7.62 -4.24 7.62 -5.25 8.125 C-5.25 8.785 -5.25 9.445 -5.25 10.125 C-6.24 10.125 -7.23 10.125 -8.25 10.125 C-8.25 9.135 -8.25 8.145 -8.25 7.125 C-9.24 7.455 -10.23 7.785 -11.25 8.125 C-11.25 6.145 -11.25 4.165 -11.25 2.125 C-7.54583874 -0.25090142 -4.32015427 -0.08000286 0 0 Z " fill="#B23520" transform="translate(215.25,300.875)"/>
<path d="M0 0 C3.0929835 2.61713988 4.8104726 4.44194711 6.125 8.3125 C5.95485952 13.33164423 4.38572884 16.32748001 1 20 C-3.02925313 22.89425225 -6.95845416 24.63019323 -12 24 C-11.34 21.03 -10.68 18.06 -10 15 C-11.670625 15.061875 -11.670625 15.061875 -13.375 15.125 C-17 15 -17 15 -19 13 C-15.7 13 -12.4 13 -9 13 C-8.6596875 14.2065625 -8.6596875 14.2065625 -8.3125 15.4375 C-7.879375 16.283125 -7.44625 17.12875 -7 18 C-4.45224694 18.89386164 -4.45224694 18.89386164 -2 19 C-2 17.02 -2 15.04 -2 13 C-1.01 12.67 -0.02 12.34 1 12 C1.66 12.33 2.32 12.66 3 13 C2.73606499 9.56769552 2.73606499 9.56769552 2 6 C1.01 5.34 0.02 4.68 -1 4 C-0.67 2.68 -0.34 1.36 0 0 Z " fill="#BC5B46" transform="translate(300,321)"/>
<path d="M0 0 C0.33 0 0.66 0 1 0 C1.96817225 7.02038729 2.00532447 13.70956652 1.6953125 20.78125 C1.65187714 21.87594604 1.60844177 22.97064209 1.56369019 24.09851074 C1.47102455 26.39458423 1.37503638 28.69052583 1.27587891 30.98632812 C1.12428619 34.51662329 0.98522884 38.0472585 0.84765625 41.578125 C0.75594618 43.81253041 0.66352399 46.04690672 0.5703125 48.28125 C0.52858917 49.34154419 0.48686584 50.40183838 0.44387817 51.4942627 C0.37908768 52.95213196 0.37908768 52.95213196 0.31298828 54.43945312 C0.2766629 55.2983313 0.24033752 56.15720947 0.20291138 57.04211426 C0 59 0 59 -1 60 C-7.52542373 60.23728814 -7.52542373 60.23728814 -10 59 C-9.67 57.68 -9.34 56.36 -9 55 C-6.69 55.66 -4.38 56.32 -2 57 C-1.98969254 56.34489441 -1.97938507 55.68978882 -1.96876526 55.01483154 C-1.86065576 48.20168161 -1.74606117 41.38866273 -1.62768555 34.57568359 C-1.58435101 32.03241719 -1.54267487 29.48912198 -1.50268555 26.94580078 C-1.44494742 23.29190381 -1.38126275 19.63815169 -1.31640625 15.984375 C-1.29969376 14.84570984 -1.28298126 13.70704468 -1.26576233 12.53387451 C-1.24581711 11.47307678 -1.22587189 10.41227905 -1.20532227 9.31933594 C-1.18977798 8.38667908 -1.1742337 7.45402222 -1.15821838 6.49310303 C-1.01246792 4.19646138 -0.6435967 2.20298873 0 0 Z " fill="#B36650" transform="translate(189,285)"/>
<path d="M0 0 C3.53372712 1.96318174 6.24479785 4.04070881 9 7 C6.36 7 3.72 7 1 7 C1 7.66 1 8.32 1 9 C1.66 9 2.32 9 3 9 C3 9.66 3 10.32 3 11 C-0.75608363 12.82438348 -2.98949808 13.30070333 -7 12 C-7.66 11.34 -8.32 10.68 -9 10 C-8.34 9.67 -7.68 9.34 -7 9 C-7.95865509 6.66924071 -7.95865509 6.66924071 -11 5 C-9.9275 4.731875 -8.855 4.46375 -7.75 4.1875 C-4.43491072 3.13772173 -2.56122354 2.25387672 0 0 Z " fill="#B13D28" transform="translate(176,330)"/>
<path d="M0 0 C1.21236328 0.01353516 1.21236328 0.01353516 2.44921875 0.02734375 C3.37154297 0.04474609 3.37154297 0.04474609 4.3125 0.0625 C5.47191038 3.54073115 5.02070884 5.52145578 4.3125 9.0625 C2.52116022 9.11641993 0.72936101 9.15525571 -1.0625 9.1875 C-2.06023437 9.21070313 -3.05796875 9.23390625 -4.0859375 9.2578125 C-6.6875 9.0625 -6.6875 9.0625 -8.6875 7.0625 C-8.3125 3.9375 -8.3125 3.9375 -7.6875 1.0625 C-4.80538698 0.10179566 -2.98899956 -0.04331883 0 0 Z " fill="#B8331F" transform="translate(387.6875,300.9375)"/>
<path d="M0 0 C1.89510699 -0.08160748 3.79124504 -0.13946459 5.6875 -0.1875 C6.74324219 -0.22230469 7.79898438 -0.25710938 8.88671875 -0.29296875 C12.35422768 0.03333385 14.18432448 1.00969875 17 3 C16.01 3.495 16.01 3.495 15 4 C15.12568359 5.12148438 15.12568359 5.12148438 15.25390625 6.265625 C15.35574219 7.25046875 15.45757812 8.2353125 15.5625 9.25 C15.66691406 10.22453125 15.77132812 11.1990625 15.87890625 12.203125 C16 15 16 15 15 19 C9.39 19 3.78 19 -2 19 C-2 18.67 -2 18.34 -2 18 C3.28 18 8.56 18 14 18 C14 16.68 14 15.36 14 14 C13.34 14 12.68 14 12 14 C11.34 13.01 10.68 12.02 10 11 C6.93443402 10.26656572 6.93443402 10.26656572 4 10 C4 9.67 4 9.34 4 9 C5.98 9 7.96 9 10 9 C9.67 8.01 9.34 7.02 9 6 C8.65772583 4.66893378 8.32248257 3.33599921 8 2 C5.36 1.67 2.72 1.34 0 1 C0 0.67 0 0.34 0 0 Z " fill="#BA4C37" transform="translate(211,300)"/>
<path d="M0 0 C0.33 2.97 0.66 5.94 1 9 C1.66 9 2.32 9 3 9 C2.34 10.32 1.68 11.64 1 13 C0.01 13 -0.98 13 -2 13 C-3.68798827 14.43750191 -3.68798827 14.43750191 -5 16 C-5 15.34 -5 14.68 -5 14 C-5.99 13.67 -6.98 13.34 -8 13 C-8 10.36 -8 7.72 -8 5 C-7.01 5 -6.02 5 -5 5 C-4.87625 4.360625 -4.7525 3.72125 -4.625 3.0625 C-4.41875 2.381875 -4.2125 1.70125 -4 1 C-2 0 -2 0 0 0 Z " fill="#AE341E" transform="translate(81,312)"/>
<path d="M0 0 C1.33571892 2.67143785 2.58239174 5.23992474 3.6875 8 C3.95949219 8.66 4.23148438 9.32 4.51171875 10 C5.26606711 13.08981087 4.50915474 15.11746511 2.9453125 17.828125 C1.62559445 20.86020448 1.80923215 23.46160755 1.875 26.75 C1.90207031 28.50570313 1.90207031 28.50570313 1.9296875 30.296875 C1.95289063 31.18890625 1.97609375 32.0809375 2 33 C0.515 33.495 0.515 33.495 -1 34 C-0.94779297 32.89591797 -0.94779297 32.89591797 -0.89453125 31.76953125 C-0.53093029 24.33885807 -0.53093029 24.33885807 -4 18 C-4.99 17.34 -5.98 16.68 -7 16 C-5.66666667 14.66666667 -4.33333333 13.33333333 -3 12 C-3 12.66 -3 13.32 -3 14 C-2.34 14.33 -1.68 14.66 -1 15 C-1 14.01 -1 13.02 -1 12 C-0.01 12 0.98 12 2 12 C1.16666667 9.83333333 1.16666667 9.83333333 -1 9 C-0.67 6.03 -0.34 3.06 0 0 Z " fill="#BA4F3B" transform="translate(178,295)"/>
<path d="M0 0 C0.33 0 0.66 0 1 0 C1.125 2.375 1.125 2.375 1 5 C-1.71663793 7.71663793 -3.30194653 7.30753121 -7.1015625 7.4140625 C-8.31328125 7.45273437 -9.525 7.49140625 -10.7734375 7.53125 C-12.04445312 7.5621875 -13.31546875 7.593125 -14.625 7.625 C-15.90375 7.66367187 -17.1825 7.70234375 -18.5 7.7421875 C-21.66652017 7.83671049 -24.8330304 7.92226357 -28 8 C-28 8.66 -28 9.32 -28 10 C-28.66 10 -29.32 10 -30 10 C-29.67 8.02 -29.34 6.04 -29 4 C-19.76 3.67 -10.52 3.34 -1 3 C-0.67 2.01 -0.34 1.02 0 0 Z " fill="#BC6558" transform="translate(236,320)"/>
<path d="M0 0 C1.32 0.66 2.64 1.32 4 2 C3.34 3.32 2.68 4.64 2 6 C2.639375 6.226875 3.27875 6.45375 3.9375 6.6875 C6 8 6 8 6.625 10.5 C6.74875 11.325 6.8725 12.15 7 13 C7.66 13.66 8.32 14.32 9 15 C7.02 15.99 7.02 15.99 5 17 C4 14 4 14 3.5625 11.375 C3.376875 10.59125 3.19125 9.8075 3 9 C2.34 8.67 1.68 8.34 1 8 C1 8.66 1 9.32 1 10 C0.01 10 -0.98 10 -2 10 C-2.28875 10.5775 -2.5775 11.155 -2.875 11.75 C-3.91666667 13.83333333 -4.95833333 15.91666667 -6 18 C-7.0031614 12.984193 -7.22940433 9.66148178 -5 5 C-2.375 2.125 -2.375 2.125 0 0 Z " fill="#BB4F3C" transform="translate(276,302)"/>
<path d="M0 0 C3.3 0.66 6.6 1.32 10 2 C9.79375 2.94875 9.5875 3.8975 9.375 4.875 C9.25125 5.90625 9.1275 6.9375 9 8 C9.66 8.66 10.32 9.32 11 10 C9.58456585 10.19658808 8.16755969 10.38187546 6.75 10.5625 C5.96109375 10.66691406 5.1721875 10.77132813 4.359375 10.87890625 C1.93653563 11.00325728 0.24988135 10.91090329 -2 10 C-3.09658936 6.71023192 -2.79953138 5.28696233 -2 2 C-1.34 2 -0.68 2 0 2 C0 1.34 0 0.68 0 0 Z " fill="#B4402B" transform="translate(280,334)"/>
<path d="M0 0 C2 2 2 2 2.125 5.625 C2.08375 6.73875 2.0425 7.8525 2 9 C0.68 9 -0.64 9 -2 9 C-2 11.31 -2 13.62 -2 16 C-6.47400242 16.36275695 -6.47400242 16.36275695 -8.8125 14.75 C-10 13 -10 13 -10 9 C-9.34 9 -8.68 9 -8 9 C-8 7.68 -8 6.36 -8 5 C-4.535 4.505 -4.535 4.505 -1 4 C-0.67 2.68 -0.34 1.36 0 0 Z " fill="#B2331D" transform="translate(301,325)"/>
<path d="M0 0 C0.66 0 1.32 0 2 0 C6.74200539 6.85897208 7.52529163 11.70039222 7 20 C0.73 20 -5.54 20 -12 20 C-12 19.67 -12 19.34 -12 19 C-8.37 19 -4.74 19 -1 19 C-0.67 18.01 -0.34 17.02 0 16 C0.66 16 1.32 16 2 16 C2 15.01 2 14.02 2 13 C2.66 13 3.32 13 4 13 C3.54625 12.0925 3.0925 11.185 2.625 10.25 C2.08875 9.1775 1.5525 8.105 1 7 C0.38125 5.9171875 0.38125 5.9171875 -0.25 4.8125 C-1 3 -1 3 0 0 Z " fill="#AD331A" transform="translate(229,304)"/>
<path d="M0 0 C0 0.33 0 0.66 0 1 C-2.97 1 -5.94 1 -9 1 C-7.31622777 4.89459074 -7.31622777 4.89459074 -5 7 C-5.66 7 -6.32 7 -7 7 C-7 8.32 -7 9.64 -7 11 C-8.32 11.33 -9.64 11.66 -11 12 C-11 12.66 -11 13.32 -11 14 C-11.66 14 -12.32 14 -13 14 C-13.33 14.66 -13.66 15.32 -14 16 C-16 13 -16 13 -16 10 C-14.68 10 -13.36 10 -12 10 C-12 8.35 -12 6.7 -12 5 C-14.7283768 5 -17.31654063 5.53331141 -20 6 C-14.79170406 -0.43377733 -7.58444578 -0.41203227 0 0 Z " fill="#B94B3B" transform="translate(99,300)"/>
<path d="M0 0 C-3.31371 2.20914 -4.3446021 2.22481553 -8.1875 2.125 C-9.08855469 2.10695313 -9.98960937 2.08890625 -10.91796875 2.0703125 C-11.60503906 2.04710938 -12.29210937 2.02390625 -13 2 C-13.103125 2.825 -13.20625 3.65 -13.3125 4.5 C-14.11646056 8.59289012 -15.46352158 12.12540225 -17 16 C-17.66 15.67 -18.32 15.34 -19 15 C-19.05447047 13.58376784 -19.09300508 12.16691809 -19.125 10.75 C-19.14820313 9.96109375 -19.17140625 9.1721875 -19.1953125 8.359375 C-18.97561699 5.70545318 -18.45771049 4.22171953 -17 2 C-11.41393083 -2.58138047 -6.55149501 -2.24449366 0 0 Z " fill="#B75649" transform="translate(257,115)"/>
<path d="M0 0 C2.4375 0.625 2.4375 0.625 5 2 C5.86272825 5.11909446 6 7.7724251 6 11 C6.3062434 12.33981486 6.63451555 13.67511887 7 15 C5.35 14.67 3.7 14.34 2 14 C2 13.34 2 12.68 2 12 C1.01 12 0.02 12 -1 12 C-1.02698189 10.37509046 -1.04638757 8.75005367 -1.0625 7.125 C-1.07410156 6.22007812 -1.08570312 5.31515625 -1.09765625 4.3828125 C-1 2 -1 2 0 0 Z " fill="#B3341C" transform="translate(108,315)"/>
<path d="M0 0 C3.63 0 7.26 0 11 0 C11 0.33 11 0.66 11 1 C9.865625 1.12375 8.73125 1.2475 7.5625 1.375 C5.7990625 1.684375 5.7990625 1.684375 4 2 C2.79022147 4.41955706 2.6973405 6.31085022 2.46484375 9.0078125 C2.37783203 9.99394531 2.29082031 10.98007812 2.20117188 11.99609375 C2.11416016 13.02863281 2.02714844 14.06117188 1.9375 15.125 C1.84662109 16.16527344 1.75574219 17.20554687 1.66210938 18.27734375 C1.43777631 20.85127048 1.21723225 23.42546585 1 26 C0.34 26 -0.32 26 -1 26 C-1.02892857 22.04168191 -1.04677427 18.08339083 -1.0625 14.125 C-1.07087891 12.99707031 -1.07925781 11.86914062 -1.08789062 10.70703125 C-1.09111328 9.63066406 -1.09433594 8.55429687 -1.09765625 7.4453125 C-1.10289307 6.45031738 -1.10812988 5.45532227 -1.11352539 4.43017578 C-1 2 -1 2 0 0 Z " fill="#B65F55" transform="translate(348,301)"/>
<path d="M0 0 C1 1 1 1 1.09765625 3.50390625 C1.08605469 4.51324219 1.07445312 5.52257812 1.0625 6.5625 C1.05347656 7.57441406 1.04445313 8.58632813 1.03515625 9.62890625 C1.02355469 10.41136719 1.01195312 11.19382812 1 12 C-2.55818936 14.26273207 -5.12547951 14.07331744 -9.25 13.625 C-10.32765625 13.51414062 -11.4053125 13.40328125 -12.515625 13.2890625 C-13.33546875 13.19367188 -14.1553125 13.09828125 -15 13 C-15 12.67 -15 12.34 -15 12 C-10.38 11.67 -5.76 11.34 -1 11 C-1 8.03 -1 5.06 -1 2 C-7.6 2 -14.2 2 -21 2 C-21 1.67 -21 1.34 -21 1 C-14.00639481 0.06751931 -7.05785895 -0.38955715 0 0 Z " fill="#C8796F" transform="translate(343,331)"/>
<path d="M0 0 C3.82097239 0.53069061 6.06171403 1.49701566 9 4 C8.67 5.65 8.34 7.3 8 9 C7.34 9 6.68 9 6 9 C6 9.66 6 10.32 6 11 C5.34 11 4.68 11 4 11 C4 11.66 4 12.32 4 13 C2.02 13.66 0.04 14.32 -2 15 C-2 14.01 -2 13.02 -2 12 C-0.35 11.67 1.3 11.34 3 11 C3 8.36 3 5.72 3 3 C1.35 3 -0.3 3 -2 3 C-1.34 2.01 -0.68 1.02 0 0 Z " fill="#BB5C4D" transform="translate(226,329)"/>
<path d="M0 0 C0.66 0.66 1.32 1.32 2 2 C1.67 2.99 1.34 3.98 1 5 C1.495 5.45375 1.99 5.9075 2.5 6.375 C4 8 4 8 4 10 C1.8125 10.3125 1.8125 10.3125 -1 10 C-4.04948889 7.5742702 -5.72274901 5.95971495 -6.8125 2.1875 C-6.874375 1.465625 -6.93625 0.74375 -7 0 C-3.85179059 -1.04940314 -3.00659136 -1.066855 0 0 Z " fill="#B4341F" transform="translate(86,334)"/>
<path d="M0 0 C2.97 0 5.94 0 9 0 C8.67 0.66 8.34 1.32 8 2 C8.99 2.66 9.98 3.32 11 4 C11 4.66 11 5.32 11 6 C9.5682384 6.69937202 8.12932968 7.38412718 6.6875 8.0625 C5.88699219 8.44535156 5.08648437 8.82820313 4.26171875 9.22265625 C2 10 2 10 -1 9 C-0.01 8.01 0.98 7.02 2 6 C1.34 5.01 0.68 4.02 0 3 C0 2.01 0 1.02 0 0 Z " fill="#AE331C" transform="translate(90,301)"/>
<path d="M0 0 C5.875 2.75 5.875 2.75 7 5 C4.60490662 7.89932357 2.68754757 8.50168276 -1 9 C-0.67 9.99 -0.34 10.98 0 12 C-0.556875 11.71125 -1.11375 11.4225 -1.6875 11.125 C-4.08494645 9.9586747 -6.51596939 8.9660119 -9 8 C-6 6 -6 6 -3.9375 5.5625 C-1.60942182 5.11223305 -1.60942182 5.11223305 0 2 C0 1.34 0 0.68 0 0 Z " fill="#B54732" transform="translate(294,301)"/>
<path d="M0 0 C0.33 0.66 0.66 1.32 1 2 C1.99 2.33 2.98 2.66 4 3 C3.39414063 3.40089844 2.78828125 3.80179688 2.1640625 4.21484375 C-0.20940841 6.17274304 -1.23415836 7.83914234 -2.625 10.5625 C-3.95914507 13.15006161 -4.92946962 14.92946962 -7 17 C-7.99 17 -8.98 17 -10 17 C-8.5482621 11.33822218 -5.68441695 6.50540116 -2 2 C-1.34 2 -0.68 2 0 2 C0 1.34 0 0.68 0 0 Z " fill="#B44737" transform="translate(184,162)"/>
<path d="M0 0 C1.81242052 -0.02687279 3.62495233 -0.04633715 5.4375 -0.0625 C6.44683594 -0.07410156 7.45617187 -0.08570313 8.49609375 -0.09765625 C11 0 11 0 12 1 C12.07226502 2.85287502 12.0838122 4.70833878 12.0625 6.5625 C12.05347656 7.57441406 12.04445313 8.58632813 12.03515625 9.62890625 C12.02355469 10.41136719 12.01195312 11.19382812 12 12 C11.34 12 10.68 12 10 12 C10 9.03 10 6.06 10 3 C7.69 3 5.38 3 3 3 C2.67 4.32 2.34 5.64 2 7 C1.34 7 0.68 7 0 7 C0 4.69 0 2.38 0 0 Z " fill="#BC5C4A" transform="translate(400,288)"/>
<path d="M0 0 C2 1.1875 2 1.1875 4 3 C4.25 5.6875 4.25 5.6875 4 8 C4.928125 8.2165625 4.928125 8.2165625 5.875 8.4375 C8 9 8 9 10 10 C10 10.99 10 11.98 10 13 C10.99 13.33 11.98 13.66 13 14 C5.76520913 13.63212928 5.76520913 13.63212928 2.125 10.625 C0 8 0 8 -2 5 C-1.125 2.3125 -1.125 2.3125 0 0 Z " fill="#B14837" transform="translate(402,331)"/>
<path d="M0 0 C0 0.66 0 1.32 0 2 C2.97 2.495 2.97 2.495 6 3 C6.33 3.99 6.66 4.98 7 6 C9.10584438 6.80563638 9.10584438 6.80563638 11.5625 7.1875 C12.38878906 7.34605469 13.21507812 7.50460937 14.06640625 7.66796875 C14.70449219 7.77753906 15.34257812 7.88710938 16 8 C16.33 7.34 16.66 6.68 17 6 C16.67 7.32 16.34 8.64 16 10 C13 10 13 10 10.4375 9.4375 C8.00235139 8.74957739 8.00235139 8.74957739 6 10 C6 9.34 6 8.68 6 8 C5.34 8 4.68 8 4 8 C3.67 8.66 3.34 9.32 3 10 C2.79375 9.360625 2.5875 8.72125 2.375 8.0625 C1.10461791 5.65074923 1.10461791 5.65074923 -2.125 5.25 C-3.07375 5.1675 -4.0225 5.085 -5 5 C-4.625 3.0625 -4.625 3.0625 -4 1 C-2 0 -2 0 0 0 Z " fill="#BF4F38" transform="translate(376,285)"/>
<path d="M0 0 C0.33 2.64 0.66 5.28 1 8 C0.01 8.495 0.01 8.495 -1 9 C-1.33 8.34 -1.66 7.68 -2 7 C-5.02934491 6.34227572 -5.02934491 6.34227572 -8 6 C-8 5.01 -8 4.02 -8 3 C-9.32 2.34 -10.64 1.68 -12 1 C-9.19301445 -1.80698555 -3.49996404 -1.25998705 0 0 Z " fill="#C56148" transform="translate(422,301)"/>
<path d="M0 0 C0.99 0.33 1.98 0.66 3 1 C2.67 1.99 2.34 2.98 2 4 C2.99 4 3.98 4 5 4 C4.67 6.64 4.34 9.28 4 12 C2.35 12.33 0.7 12.66 -1 13 C-1.68707555 10.50935112 -2 8.62113708 -2 6 C-1.34 6 -0.68 6 0 6 C-0.99 4.68 -1.98 3.36 -3 2 C-2.01 2 -1.02 2 0 2 C0 1.34 0 0.68 0 0 Z " fill="#B93422" transform="translate(154,312)"/>
<path d="M0 0 C0.598125 0.20625 1.19625 0.4125 1.8125 0.625 C1.8125 1.285 1.8125 1.945 1.8125 2.625 C4.7825 3.12 4.7825 3.12 7.8125 3.625 C7 5.5625 7 5.5625 5.8125 7.625 C4.8225 7.955 3.8325 8.285 2.8125 8.625 C1.8225 7.635 0.8325 6.645 -0.1875 5.625 C-1.1775 5.955 -2.1675 6.285 -3.1875 6.625 C-3.1875 5.965 -3.1875 5.305 -3.1875 4.625 C-3.8475 4.625 -4.5075 4.625 -5.1875 4.625 C-5.1875 3.635 -5.1875 2.645 -5.1875 1.625 C-2.1875 -0.375 -2.1875 -0.375 0 0 Z " fill="#B3341D" transform="translate(104.1875,306.375)"/>
<path d="M0 0 C0.33 0 0.66 0 1 0 C1 2.64 1 5.28 1 8 C-1.97 8 -4.94 8 -8 8 C-8 14.93 -8 21.86 -8 29 C-8.33 29 -8.66 29 -9 29 C-9.33 21.74 -9.66 14.48 -10 7 C-5.64467851 4.82233925 -4.53374042 4.96960445 0 6 C0 4.02 0 2.04 0 0 Z " fill="#A5372C" transform="translate(420,302)"/>
<path d="M0 0 C0.08004482 3.5219721 0.04005702 6.61981469 -1 10 C-1.99 10 -2.98 10 -4 10 C-4 9.01 -4 8.02 -4 7 C-4.99 7.33 -5.98 7.66 -7 8 C-7 6.02 -7 4.04 -7 2 C-4.35261084 0.5393715 -3.10551666 0 0 0 Z " fill="#B23B28" transform="translate(211,301)"/>
<path d="M0 0 C2.64 0 5.28 0 8 0 C7.67 0.99 7.34 1.98 7 3 C8.65 3 10.3 3 12 3 C12 3.66 12 4.32 12 5 C12.66 5 13.32 5 14 5 C14.66 3.68 15.32 2.36 16 1 C16 2.98 16 4.96 16 7 C13.375 7.875 13.375 7.875 10 8 C8.2901314 6.56868142 6.92233229 4.98263117 5.45703125 3.3046875 C3.96835197 1.66589322 3.96835197 1.66589322 1.125 2.125 C0.42375 2.41375 -0.2775 2.7025 -1 3 C-0.67 2.01 -0.34 1.02 0 0 Z " fill="#B75A4D" transform="translate(337,192)"/>
<path d="M0 0 C3.3 0 6.6 0 10 0 C10.268125 0.763125 10.53625 1.52625 10.8125 2.3125 C11.95800967 4.90496926 12.99711522 6.08815544 15 8 C15 8.66 15 9.32 15 10 C12.36 10.33 9.72 10.66 7 11 C7.66 8.03 8.32 5.06 9 2 C7.329375 2.061875 7.329375 2.061875 5.625 2.125 C2 2 2 2 0 0 Z " fill="#BE5849" transform="translate(281,334)"/>
<path d="M0 0 C0.99 0 1.98 0 3 0 C3 0.99 3 1.98 3 3 C3.66 3 4.32 3 5 3 C5.33 4.98 5.66 6.96 6 9 C8.31 9.33 10.62 9.66 13 10 C13.33 11.32 13.66 12.64 14 14 C11.61435923 13.42415568 9.33317216 12.77772405 7 12 C7 11.34 7 10.68 7 10 C6.34 10 5.68 10 5 10 C5 9.34 5 8.68 5 8 C4.34 8 3.68 8 3 8 C0 2.25 0 2.25 0 0 Z " fill="#B85648" transform="translate(196,330)"/>
<path d="M0 0 C6.27 0 12.54 0 19 0 C19 0.33 19 0.66 19 1 C17.35 1.33 15.7 1.66 14 2 C14 2.33 14 2.66 14 3 C7.565 3.495 7.565 3.495 1 4 C1 4.66 1 5.32 1 6 C0.34 6 -0.32 6 -1 6 C-0.67 4.02 -0.34 2.04 0 0 Z " fill="#B85444" transform="translate(207,324)"/>
<path d="M0 0 C0.99 0.33 1.98 0.66 3 1 C3 7.93 3 14.86 3 22 C2.67 22 2.34 22 2 22 C1.67 16.39 1.34 10.78 1 5 C-1.97 7.475 -1.97 7.475 -5 10 C-5.33 8.68 -5.66 7.36 -6 6 C-4.68 6 -3.36 6 -2 6 C-2 4.68 -2 3.36 -2 2 C-1.34 2 -0.68 2 0 2 C0 1.34 0 0.68 0 0 Z " fill="#C66D5E" transform="translate(258,234)"/>
<path d="M0 0 C3.63 0 7.26 0 11 0 C12 5 12 5 11 10 C5.39 10 -0.22 10 -6 10 C-6 9.67 -6 9.34 -6 9 C-0.72 9 4.56 9 10 9 C10 7.68 10 6.36 10 5 C9.34 5 8.68 5 8 5 C7.34 4.01 6.68 3.02 6 2 C2.93443402 1.26656572 2.93443402 1.26656572 0 1 C0 0.67 0 0.34 0 0 Z " fill="#C05E49" transform="translate(215,309)"/>
<path d="M0 0 C0.33 0 0.66 0 1 0 C0.67 2.31 0.34 4.62 0 7 C-0.66 7 -1.32 7 -2 7 C-2.33 8.65 -2.66 10.3 -3 12 C-3.99 11.67 -4.98 11.34 -6 11 C-5.34 11 -4.68 11 -4 11 C-4 10.34 -4 9.68 -4 9 C-5.1446875 9.556875 -5.1446875 9.556875 -6.3125 10.125 C-7.199375 10.41375 -8.08625 10.7025 -9 11 C-9.99 10.34 -10.98 9.68 -12 9 C-11.67 8.34 -11.34 7.68 -11 7 C-10.278125 7.0825 -9.55625 7.165 -8.8125 7.25 C-5.10642187 6.92057083 -3.63241879 5.55929605 -1 3 C-0.67 2.01 -0.34 1.02 0 0 Z M-12 11 C-9 12 -9 12 -9 12 Z " fill="#C15B4E" transform="translate(104,326)"/>
<path d="M0 0 C1.21236328 0.02707031 1.21236328 0.02707031 2.44921875 0.0546875 C3.37154297 0.08949219 3.37154297 0.08949219 4.3125 0.125 C5.47191038 3.60323115 5.02070884 5.58395578 4.3125 9.125 C0.6825 9.125 -2.9475 9.125 -6.6875 9.125 C-6.6875 8.795 -6.6875 8.465 -6.6875 8.125 C-3.7175 8.125 -0.7475 8.125 2.3125 8.125 C2.3125 6.145 2.3125 4.165 2.3125 2.125 C-0.9875 2.125 -4.2875 2.125 -7.6875 2.125 C-4.48369983 -0.01086678 -3.66810033 -0.10632175 0 0 Z " fill="#9F2F24" transform="translate(387.6875,300.875)"/>
<path d="M0 0 C2.97 0.99 5.94 1.98 9 3 C9 4.65 9 6.3 9 8 C5.26512223 7.5020163 3.18762365 7.12508244 0 5 C-0.1875 2.375 -0.1875 2.375 0 0 Z " fill="#B3341D" transform="translate(349,285)"/>
<path d="M0 0 C2.31 0 4.62 0 7 0 C7 0.99 7 1.98 7 3 C6.01 3.495 6.01 3.495 5 4 C5 4.99 5 5.98 5 7 C4.01 6.67 3.02 6.34 2 6 C1.67 6.33 1.34 6.66 1 7 C-1.33944736 6.71269945 -3.6739143 6.38063221 -6 6 C-5.38125 5.938125 -4.7625 5.87625 -4.125 5.8125 C-1.72238859 5.171081 -1.72238859 5.171081 -0.75 2.4375 C-0.5025 1.633125 -0.255 0.82875 0 0 Z " fill="#AD331F" transform="translate(173,304)"/>
<path d="M0 0 C-0.33 0.66 -0.66 1.32 -1 2 C-1.66 2 -2.32 2 -3 2 C-3 2.66 -3 3.32 -3 4 C-3.66 4 -4.32 4 -5 4 C-5 4.66 -5 5.32 -5 6 C-5.66 6 -6.32 6 -7 6 C-7 6.66 -7 7.32 -7 8 C-7.99 7.67 -8.98 7.34 -10 7 C-10.875 5.125 -10.875 5.125 -11 3 C-8.69211729 -1.30804773 -4.25159903 -0.20909503 0 0 Z " fill="#B74A36" transform="translate(276,194)"/>
<path d="M0 0 C2.66666667 0.66666667 5.33333333 1.33333333 8 2 C7.67 2.66 7.34 3.32 7 4 C7.99 4.33 8.98 4.66 10 5 C10 5.33 10 5.66 10 6 C8.41590006 5.88512252 6.83271037 5.75765492 5.25 5.625 C4.36828125 5.55539062 3.4865625 5.48578125 2.578125 5.4140625 C0.00933618 5.00149945 -1.75841015 4.28839043 -4 3 C-2.68 2.67 -1.36 2.34 0 2 C0 1.34 0 0.68 0 0 Z " fill="#B84C3C" transform="translate(283,322)"/>
<path d="M0 0 C2.97 0 5.94 0 9 0 C8.34 0.66 7.68 1.32 7 2 C5.68 2 4.36 2 3 2 C2.67 4.64 2.34 7.28 2 10 C1.01 10.33 0.02 10.66 -1 11 C-1.125 3.375 -1.125 3.375 0 0 Z " fill="#AB331F" transform="translate(179,284)"/>
<path d="M0 0 C1.81242052 -0.02687279 3.62495233 -0.04633715 5.4375 -0.0625 C6.44683594 -0.07410156 7.45617187 -0.08570313 8.49609375 -0.09765625 C11 0 11 0 12 1 C12.07205511 2.68608966 12.08386068 4.37500659 12.0625 6.0625 C12.05347656 6.98160156 12.04445313 7.90070313 12.03515625 8.84765625 C12.02355469 9.55792969 12.01195312 10.26820313 12 11 C11.34 11 10.68 11 10 11 C9.896875 10.071875 9.79375 9.14375 9.6875 8.1875 C8.87257762 4.35330565 8.87257762 4.35330565 6 2 C2.89160979 1.2730774 2.89160979 1.2730774 0 1 C0 0.67 0 0.34 0 0 Z " fill="#B7584C" transform="translate(345,162)"/>
<path d="M0 0 C1.47906892 -0.02689216 2.95827483 -0.04634621 4.4375 -0.0625 C5.26121094 -0.07410156 6.08492188 -0.08570313 6.93359375 -0.09765625 C9 0 9 0 10 1 C10.203125 2.99609375 10.203125 2.99609375 10.25 5.4375 C10.28867187 6.64212891 10.28867187 6.64212891 10.328125 7.87109375 C10.21984375 8.57363281 10.1115625 9.27617187 10 10 C9.01 10.66 8.02 11.32 7 12 C6.01 11.67 5.02 11.34 4 11 C4.66 11 5.32 11 6 11 C6 10.34 6 9.68 6 9 C6.66 9 7.32 9 8 9 C8 6.69 8 4.38 8 2 C5.36 2 2.72 2 0 2 C0 1.34 0 0.68 0 0 Z " fill="#C2765D" transform="translate(413,333)"/>
<path d="M0 0 C0.66 0 1.32 0 2 0 C2 0.66 2 1.32 2 2 C3.98 2 5.96 2 8 2 C8 5.51716303 7.17554415 6.37121748 5 9 C4.01 8.67 3.02 8.34 2 8 C0.5522078 5.10441559 0 3.25811062 0 0 Z " fill="#B5351C" transform="translate(154,332)"/>
<path d="M0 0 C0.66 0.33 1.32 0.66 2 1 C2 1.66 2 2.32 2 3 C2.99 3 3.98 3 5 3 C5 3.66 5 4.32 5 5 C2 7 2 7 0.0625 6.9375 C-2.83932859 5.61848701 -4.16836073 3.55121184 -6 1 C-4.7934375 1.0309375 -4.7934375 1.0309375 -3.5625 1.0625 C-1.06645115 1.29633621 -1.06645115 1.29633621 0 0 Z " fill="#B64F3D" transform="translate(296,194)"/>
<path d="M0 0 C-0.33 0.99 -0.66 1.98 -1 3 C-1.66 3 -2.32 3 -3 3 C-3 3.66 -3 4.32 -3 5 C-4.175625 5.37125 -4.175625 5.37125 -5.375 5.75 C-8.13350832 6.72822087 -8.13350832 6.72822087 -9 9.0625 C-9.33 9.701875 -9.66 10.34125 -10 11 C-12.625 11.75 -12.625 11.75 -15 12 C-15 11.34 -15 10.68 -15 10 C-10.52941176 6 -10.52941176 6 -8 6 C-8 5.34 -8 4.68 -8 4 C-2.58823529 0 -2.58823529 0 0 0 Z " fill="#B15344" transform="translate(205,145)"/>
<path d="M0 0 C3.27542151 2.77151051 4.84441111 4.43599028 6 8.625 C6 12 6 12 4.5625 13.9375 C4.046875 14.288125 3.53125 14.63875 3 15 C2 13 2 13 2.125 9.5 C2.063125 7.7675 2.063125 7.7675 2 6 C1.01 5.34 0.02 4.68 -1 4 C-0.67 2.68 -0.34 1.36 0 0 Z " fill="#C47063" transform="translate(300,321)"/>
<path d="M0 0 C-3.36609733 2.24406489 -5.00470086 2.05346541 -8.92578125 1.9375 C-11.84515941 2.0254662 -14.3078102 2.92312408 -17 4 C-17 3.34 -17 2.68 -17 2 C-10.85623236 -2.05120373 -6.9379439 -2.37688819 0 0 Z " fill="#BB6958" transform="translate(257,115)"/>
<path d="M0 0 C0.103125 0.639375 0.20625 1.27875 0.3125 1.9375 C0.539375 2.618125 0.76625 3.29875 1 4 C1.99 4.33 2.98 4.66 4 5 C3.67 7.31 3.34 9.62 3 12 C0.03 11.505 0.03 11.505 -3 11 C-2.34 10.67 -1.68 10.34 -1 10 C-1.0309375 8.3603125 -1.0309375 8.3603125 -1.0625 6.6875 C-1 3 -1 3 0 0 Z " fill="#CD6B5A" transform="translate(370,290)"/>
<path d="M0 0 C1.65 0 3.3 0 5 0 C5.98120464 3.05263664 5.98120464 4.94736336 5 8 C2.03 7.505 2.03 7.505 -1 7 C-0.649375 6.21625 -0.29875 5.4325 0.0625 4.625 C0.371875 3.75875 0.68125 2.8925 1 2 C0.67 1.34 0.34 0.68 0 0 Z " fill="#B5341B" transform="translate(224,332)"/>
<path d="M0 0 C2.64 0.66 5.28 1.32 8 2 C8.33 1.34 8.66 0.68 9 0 C9.5625 1.9375 9.5625 1.9375 10 4 C9 5 9 5 5.5625 5.125 C2 5 2 5 0 4 C0 2.68 0 1.36 0 0 Z " fill="#C67A6D" transform="translate(179,340)"/>
<path d="M0 0 C0.99 0.33 1.98 0.66 3 1 C2.62875 2.60875 2.62875 2.60875 2.25 4.25 C1.57571378 8.02745496 1.57571378 8.02745496 3.9375 10.4375 C4.618125 10.953125 5.29875 11.46875 6 12 C3.0625 11.625 3.0625 11.625 0 11 C-1.49297212 8.01405576 -1.11755228 5.29146376 -1 2 C-0.67 1.34 -0.34 0.68 0 0 Z " fill="#B56457" transform="translate(154,229)"/>
<path d="M0 0 C0.66 0.33 1.32 0.66 2 1 C1.67 1.66 1.34 2.32 1 3 C2.98 3.66 4.96 4.32 7 5 C5 7 5 7 2.8359375 7.1953125 C1.61777344 7.16050781 1.61777344 7.16050781 0.375 7.125 C-0.44226563 7.10695313 -1.25953125 7.08890625 -2.1015625 7.0703125 C-2.72804688 7.04710937 -3.35453125 7.02390625 -4 7 C-3.30621489 3.73988358 -2.54106009 2.20961747 0 0 Z " fill="#D37B6E" transform="translate(374,338)"/>
<path d="M0 0 C0.33 0 0.66 0 1 0 C1.95494281 6.57849492 1.8931507 12.41816638 1 19 C-1 17 -1 17 -1.23046875 14.1015625 C-1.21628906 12.95429688 -1.20210937 11.80703125 -1.1875 10.625 C-1.18105469 9.48289062 -1.17460937 8.34078125 -1.16796875 7.1640625 C-1.0310161 4.58425671 -0.75511844 2.45262469 0 0 Z " fill="#D68959" transform="translate(189,285)"/>
<path d="M0 0 C0.99 0 1.98 0 3 0 C3.33 0.66 3.66 1.32 4 2 C4.99 2.33 5.98 2.66 7 3 C5.84826645 5.46800047 4.95216435 7.04783565 3 9 C2.01 8.67 1.02 8.34 0 8 C0.66 5.69 1.32 3.38 2 1 C1.34 0.67 0.68 0.34 0 0 Z " fill="#AA3014" transform="translate(249,302)"/>
<path d="M0 0 C0.66 0 1.32 0 2 0 C2 1.65 2 3.3 2 5 C3.32 5.33 4.64 5.66 6 6 C5.34 7.32 4.68 8.64 4 10 C2.0625 9.1875 2.0625 9.1875 0 8 C-1.09658936 4.71023192 -0.79953138 3.28696233 0 0 Z " fill="#BE5D4F" transform="translate(347,285)"/>
<path d="M0 0 C0.99 0 1.98 0 3 0 C2.9278125 0.61488281 2.855625 1.22976562 2.78125 1.86328125 C2.6884375 2.67152344 2.595625 3.47976562 2.5 4.3125 C2.4071875 5.11300781 2.314375 5.91351563 2.21875 6.73828125 C1.95186537 9.11896555 1.95186537 9.11896555 2 12 C1.34 12 0.68 12 0 12 C-1.29449495 8.11651516 -1.13203312 5.09302664 -1 1 C-0.67 0.67 -0.34 0.34 0 0 Z " fill="#BE6053" transform="translate(311,164)"/>
<path d="M0 0 C1.60031344 3.20062687 0.03173691 5.72271806 -1 9 C-1.66 8.67 -2.32 8.34 -3 8 C-3.66 8.66 -4.32 9.32 -5 10 C-5 7.36 -5 4.72 -5 2 C-4.360625 1.855625 -3.72125 1.71125 -3.0625 1.5625 C-1.02454854 1.18992819 -1.02454854 1.18992819 0 0 Z " fill="#DA3E35" transform="translate(365,300)"/>
<path d="M0 0 C3.3 0.66 6.6 1.32 10 2 C10 2.33 10 2.66 10 3 C7.36 3 4.72 3 2 3 C2 3.99 2 4.98 2 6 C1.01 6 0.02 6 -1 6 C-1.33 6.99 -1.66 7.98 -2 9 C-3.33332095 6.3333581 -2.67102033 4.83319697 -2 2 C-1.34 2 -0.68 2 0 2 C0 1.34 0 0.68 0 0 Z " fill="#A82D1A" transform="translate(280,334)"/>
<path d="M0 0 C0.33 0.66 0.66 1.32 1 2 C1.99 2.33 2.98 2.66 4 3 C3.38125 3.433125 2.7625 3.86625 2.125 4.3125 C-0.2197245 5.99740483 -0.2197245 5.99740483 -2 9 C-2.99 8.34 -3.98 7.68 -5 7 C-3.625 4.5 -3.625 4.5 -2 2 C-1.34 2 -0.68 2 0 2 C0 1.34 0 0.68 0 0 Z " fill="#B7503D" transform="translate(184,162)"/>
<path d="M0 0 C0.33 0 0.66 0 1 0 C1.84888195 5.37625234 2.0024305 9.65370398 1 15 C-1.1875 13.125 -1.1875 13.125 -3 10 C-2.44846603 6.49267233 -1.30468109 3.29368021 0 0 Z " fill="#BD4233" transform="translate(115,315)"/>
<path d="M0 0 C1.98 0 3.96 0 6 0 C5 2 5 2 3 4 C0.34462628 4.56520003 -2.29144713 4.73788198 -5 5 C-5 4.34 -5 3.68 -5 3 C-4.360625 2.87625 -3.72125 2.7525 -3.0625 2.625 C-2.0415625 2.315625 -2.0415625 2.315625 -1 2 C-0.67 1.34 -0.34 0.68 0 0 Z " fill="#B9351C" transform="translate(289,303)"/>
<path d="M0 0 C0.99 0.33 1.98 0.66 3 1 C2.01 1.495 2.01 1.495 1 2 C0.67 2.66 0.34 3.32 0 4 C0 2.68 0 1.36 0 0 Z M-8 2 C-5.69 2.33 -3.38 2.66 -1 3 C-1.33 3.66 -1.66 4.32 -2 5 C-4.97 4.505 -4.97 4.505 -8 4 C-8 5.65 -8 7.3 -8 9 C-8.66 9 -9.32 9 -10 9 C-9.34 6.69 -8.68 4.38 -8 2 Z " fill="#A52A16" transform="translate(374,299)"/>
<path d="M0 0 C0.66 0.33 1.32 0.66 2 1 C0.46123556 4.84691109 -0.50978935 6.68986673 -4.0625 8.9375 C-5.031875 9.288125 -6.00125 9.63875 -7 10 C-7.66 9.67 -8.32 9.34 -9 9 C-8.01 8.67 -7.02 8.34 -6 8 C-6 7.34 -6 6.68 -6 6 C-5.34 6 -4.68 6 -4 6 C-4 5.34 -4 4.68 -4 4 C-3.34 4 -2.68 4 -2 4 C-2 3.34 -2 2.68 -2 2 C-1.34 2 -0.68 2 0 2 C0 1.34 0 0.68 0 0 Z " fill="#BE6455" transform="translate(276,201)"/>
<path d="M0 0 C-0.33 1.32 -0.66 2.64 -1 4 C-4.3 3.67 -7.6 3.34 -11 3 C-7.74003139 -0.25996861 -4.40088745 -1.46696248 0 0 Z " fill="#C57A6C" transform="translate(132,341)"/>
<path d="M0 0 C0.33 1.32 0.66 2.64 1 4 C-1.25 4.25 -1.25 4.25 -4 4 C-6.3125 2 -6.3125 2 -8 0 C-4.71023192 -1.09658936 -3.28696233 -0.79953138 0 0 Z " fill="#B35243" transform="translate(89,340)"/>
<path d="M0 0 C0.66 0 1.32 0 2 0 C5.22265625 5.2734375 5.22265625 5.2734375 6 7 C5.67 7.66 5.34 8.32 5 9 C3.68 8.67 2.36 8.34 1 8 C1 7.34 1 6.68 1 6 C0.34 5.67 -0.32 5.34 -1 5 C-0.67 3.35 -0.34 1.7 0 0 Z " fill="#B85745" transform="translate(229,304)"/>
<path d="M0 0 C2 3 2 3 1.625 5.6875 C1.41875 6.450625 1.2125 7.21375 1 8 C-1.97 7.505 -1.97 7.505 -5 7 C-5 5 -5 5 -2.5 2.375 C-1.675 1.59125 -0.85 0.8075 0 0 Z " fill="#B2361D" transform="translate(86,303)"/>
<path d="M0 0 C3.63 0 7.26 0 11 0 C7.32740617 2.44839588 4.45351799 4 0 4 C0 2.68 0 1.36 0 0 Z " fill="#AB2F1C" transform="translate(211,301)"/>
<path d="M0 0 C0.99 0.33 1.98 0.66 3 1 C3 1.99 3 2.98 3 4 C2.34 4 1.68 4 1 4 C1 4.66 1 5.32 1 6 C-0.98 6.99 -0.98 6.99 -3 8 C-3.1875 5.125 -3.1875 5.125 -3 2 C-2.01 1.34 -1.02 0.68 0 0 Z " fill="#B64F3F" transform="translate(333,193)"/>
<path d="M0 0 C0.66 1.32 1.32 2.64 2 4 C-1.40562852 4.77842938 -4.50765756 5.09978121 -8 5 C-7.01 4.67 -6.02 4.34 -5 4 C-5 3.01 -5 2.02 -5 1 C-3.35 0.67 -1.7 0.34 0 0 Z " fill="#CD766A" transform="translate(357,340)"/>
<path d="M0 0 C0.86625 0.556875 0.86625 0.556875 1.75 1.125 C1.75 2.115 1.75 3.105 1.75 4.125 C2.74 4.455 3.73 4.785 4.75 5.125 C-2.75769231 4.50961538 -2.75769231 4.50961538 -5.25 2.5625 C-5.58 2.088125 -5.91 1.61375 -6.25 1.125 C-2.80384615 -1.09038462 -2.80384615 -1.09038462 0 0 Z " fill="#BA5C4D" transform="translate(410.25,339.875)"/>
<path d="M0 0 C1.5 1.25 1.5 1.25 3 3 C3 4.32 3 5.64 3 7 C3.66 7.66 4.32 8.32 5 9 C2.69 8.67 0.38 8.34 -2 8 C-1.01 6.35 -0.02 4.7 1 3 C0.01 2.67 -0.98 2.34 -2 2 C-1.34 1.34 -0.68 0.68 0 0 Z " fill="#A9331E" transform="translate(279,301)"/>
<path d="M0 0 C0.33 0.66 0.66 1.32 1 2 C1.66 2 2.32 2 3 2 C2.67 3.65 2.34 5.3 2 7 C-0.86724686 6.42655063 -1.8614515 6.1385485 -4 4 C-3.34 3.67 -2.68 3.34 -2 3 C-2.33 2.34 -2.66 1.68 -3 1 C-2.01 0.67 -1.02 0.34 0 0 Z " fill="#B13523" transform="translate(171,336)"/>
<path d="M0 0 C1.09658936 3.28976808 0.79953138 4.71303767 0 8 C-1.65 8.33 -3.3 8.66 -5 9 C-5.33 8.34 -5.66 7.68 -6 7 C-5.34 7 -4.68 7 -4 7 C-3.67 5.02 -3.34 3.04 -3 1 C-2.34 1.33 -1.68 1.66 -1 2 C-0.67 1.34 -0.34 0.68 0 0 Z " fill="#AA301B" transform="translate(158,316)"/>
<path d="M0 0 C2.64 0.33 5.28 0.66 8 1 C7.34 1.66 6.68 2.32 6 3 C5.67 3.66 5.34 4.32 5 5 C5.66 5.33 6.32 5.66 7 6 C6.01 6.33 5.02 6.66 4 7 C3.34 6.67 2.68 6.34 2 6 C2 4.68 2 3.36 2 2 C1.34 2 0.68 2 0 2 C0 1.34 0 0.68 0 0 Z " fill="#B8493A" transform="translate(268,134)"/>
<path d="M0 0 C1.32 0 2.64 0 4 0 C3 3 3 3 1 4 C1.66 4.66 2.32 5.32 3 6 C2.67 6.66 2.34 7.32 2 8 C1.34 8 0.68 8 0 8 C-0.66 6.02 -1.32 4.04 -2 2 C-1.34 1.34 -0.68 0.68 0 0 Z " fill="#C27665" transform="translate(270,330)"/>
<path d="M0 0 C0.33 0 0.66 0 1 0 C1.12375 1.19625 1.2475 2.3925 1.375 3.625 C1.71173426 6.46462475 2.20678061 8.57680906 3.1875 11.3125 C3.455625 12.199375 3.72375 13.08625 4 14 C3.01 15.485 3.01 15.485 2 17 C-0.44064587 11.35600642 -0.19289099 6.02248522 0 0 Z " fill="#D7978C" transform="translate(72,317)"/>
<path d="M0 0 C0 0.66 0 1.32 0 2 C0.99 2.66 1.98 3.32 3 4 C2.67 4.99 2.34 5.98 2 7 C-0.02045442 6.39816251 -2.02111039 5.72693904 -4 5 C-4.33 4.34 -4.66 3.68 -5 3 C-2.25 0 -2.25 0 0 0 Z " fill="#C05B3D" transform="translate(376,285)"/>
<path d="M0 0 C0.99386719 0.00902344 1.98773438 0.01804687 3.01171875 0.02734375 C4.15060547 0.04474609 4.15060547 0.04474609 5.3125 0.0625 C5.3125 0.3925 5.3125 0.7225 5.3125 1.0625 C1.6825 1.3925 -1.9475 1.7225 -5.6875 2.0625 C-5.3575 3.0525 -5.0275 4.0425 -4.6875 5.0625 C-6.3375 4.7325 -7.9875 4.4025 -9.6875 4.0625 C-9.3575 3.0725 -9.0275 2.0825 -8.6875 1.0625 C-5.53819107 0.01273036 -3.29935544 -0.03881595 0 0 Z " fill="#A92F20" transform="translate(384.6875,283.9375)"/>
<path d="M0 0 C1.32 0.33 2.64 0.66 4 1 C4.33 2.65 4.66 4.3 5 6 C3.68 5.34 2.36 4.68 1 4 C-0.32 4.99 -1.64 5.98 -3 7 C-3 6.01 -3 5.02 -3 4 C-2.34 4 -1.68 4 -1 4 C-0.67 2.68 -0.34 1.36 0 0 Z " fill="#B95A48" transform="translate(281,214)"/>
<path d="M0 0 C2.64 0 5.28 0 8 0 C8.68707555 2.49064888 9 4.37886292 9 7 C8.278125 6.154375 7.55625 5.30875 6.8125 4.4375 C4.26390537 1.65105845 4.26390537 1.65105845 1.1875 2.1875 C0.1046875 2.5896875 0.1046875 2.5896875 -1 3 C-0.67 2.01 -0.34 1.02 0 0 Z " fill="#C16F60" transform="translate(337,192)"/>
<path d="M0 0 C0.66 0 1.32 0 2 0 C2 0.66 2 1.32 2 2 C2.66 2.33 3.32 2.66 4 3 C-0.86051596 5.59227518 -5.65271133 5.18689553 -11 5 C-11 4.67 -11 4.34 -11 4 C-10.37351562 3.96261719 -9.74703125 3.92523438 -9.1015625 3.88671875 C-8.28429687 3.82097656 -7.46703125 3.75523437 -6.625 3.6875 C-5.81289062 3.62949219 -5.00078125 3.57148438 -4.1640625 3.51171875 C-1.62078662 3.17009472 -1.62078662 3.17009472 0 0 Z " fill="#BF6F57" transform="translate(101,340)"/>
<path d="M0 0 C2.64 0.33 5.28 0.66 8 1 C8.33 2.32 8.66 3.64 9 5 C6.61435923 4.42415568 4.33317216 3.77772405 2 3 C2 2.34 2 1.68 2 1 C1.34 0.67 0.68 0.34 0 0 Z " fill="#BF6A5E" transform="translate(201,339)"/>
<path d="M0 0 C0.66 0 1.32 0 2 0 C5 3.46153846 5 3.46153846 5 6 C2.69 5.34 0.38 4.68 -2 4 C-1.34 2.68 -0.68 1.36 0 0 Z " fill="#B54638" transform="translate(276,328)"/>
<path d="M0 0 C2.875 -0.125 2.875 -0.125 6 0 C6.66 0.66 7.32 1.32 8 2 C8.99 2.66 9.98 3.32 11 4 C6.545 4.495 6.545 4.495 2 5 C2 4.34 2 3.68 2 3 C1.34 2.01 0.68 1.02 0 0 Z " fill="#C65D4F" transform="translate(289,317)"/>
<path d="M0 0 C1.98 0.66 3.96 1.32 6 2 C5.814375 2.78375 5.62875 3.5675 5.4375 4.375 C4.74037734 6.97089775 4.74037734 6.97089775 6 9 C4.35 8.67 2.7 8.34 1 8 C0.67 5.36 0.34 2.72 0 0 Z " fill="#BB3C28" transform="translate(280,301)"/>
<path d="M0 0 C1.0625 1.875 1.0625 1.875 2 4 C1.67 4.66 1.34 5.32 1 6 C0.34 6 -0.32 6 -1 6 C-1 6.66 -1 7.32 -1 8 C-1.66 8 -2.32 8 -3 8 C-4 5 -4 5 -3 2 C-2.01 1.34 -1.02 0.68 0 0 Z " fill="#B14536" transform="translate(251,240)"/>
<path d="M0 0 C2 1 2 1 3 3 C1.8125 4.5 1.8125 4.5 0 6 C-2.6875 6.1875 -2.6875 6.1875 -5 6 C-4.67 5.34 -4.34 4.68 -4 4 C-3.34 4 -2.68 4 -2 4 C-1.34 2.68 -0.68 1.36 0 0 Z " fill="#BB594E" transform="translate(311,195)"/>
<path d="M0 0 C0.99 0.33 1.98 0.66 3 1 C2.34 1 1.68 1 1 1 C1 1.66 1 2.32 1 3 C1.66 3 2.32 3 3 3 C3 3.66 3 4.32 3 5 C1.02 5.66 -0.96 6.32 -3 7 C-3.33 6.01 -3.66 5.02 -4 4 C-3.34 4 -2.68 4 -2 4 C-2 3.34 -2 2.68 -2 2 C-1.34 2 -0.68 2 0 2 C0 1.34 0 0.68 0 0 Z " fill="#BC543A" transform="translate(176,336)"/>
<path d="M0 0 C-0.33 2.97 -0.66 5.94 -1 9 C-1.66 9 -2.32 9 -3 9 C-3.33 6.36 -3.66 3.72 -4 1 C-1 0 -1 0 0 0 Z " fill="#B24431" transform="translate(85,312)"/>
<path d="M0 0 C0.66 0 1.32 0 2 0 C2 2.31 2 4.62 2 7 C-0.31 6.67 -2.62 6.34 -5 6 C-2 4 -2 4 0 4 C0 2.68 0 1.36 0 0 Z " fill="#A32315" transform="translate(390,286)"/>
<path d="M0 0 C3.63 0.33 7.26 0.66 11 1 C10.67 1.66 10.34 2.32 10 3 C6.7 3 3.4 3 0 3 C0 2.01 0 1.02 0 0 Z " fill="#AC4B3B" transform="translate(311,286)"/>
<path d="M0 0 C1.65 0.99 3.3 1.98 5 3 C5.33 2.34 5.66 1.68 6 1 C6.33 1.99 6.66 2.98 7 4 C4.36 4.33 1.72 4.66 -1 5 C-0.67 3.35 -0.34 1.7 0 0 Z " fill="#AB392A" transform="translate(121,338)"/>
<path d="M0 0 C1.24546405 2.49092811 0.7767578 3.41080733 0 6 C-1.32 5.67 -2.64 5.34 -4 5 C-4 4.34 -4 3.68 -4 3 C-4.66 3 -5.32 3 -6 3 C-6 2.34 -6 1.68 -6 1 C-4.7934375 1.0309375 -4.7934375 1.0309375 -3.5625 1.0625 C-1.06645115 1.29633621 -1.06645115 1.29633621 0 0 Z " fill="#B85443" transform="translate(278,337)"/>
<path d="M0 0 C0 2.31 0 4.62 0 7 C-0.66 5.68 -1.32 4.36 -2 3 C-2.66 3 -3.32 3 -4 3 C-4.33 3.66 -4.66 4.32 -5 5 C-5.33 3.35 -5.66 1.7 -6 0 C-3.50907189 -1.24546405 -2.58919267 -0.7767578 0 0 Z " fill="#CC7C6E" transform="translate(312,217)"/>
<path d="M0 0 C0.66 0 1.32 0 2 0 C2 0.66 2 1.32 2 2 C3.98 2 5.96 2 8 2 C8 2.66 8 3.32 8 4 C5.69 4.33 3.38 4.66 1 5 C0.67 3.35 0.34 1.7 0 0 Z " fill="#A63B2C" transform="translate(243,339)"/>
<path d="M0 0 C0.33 1.32 0.66 2.64 1 4 C0.01 4.66 -0.98 5.32 -2 6 C-2.72965366 8.56282742 -2.72965366 8.56282742 -3 11 C-3.66 11 -4.32 11 -5 11 C-3.92289822 6.69159287 -2.96052484 3.36423277 0 0 Z " fill="#C37361" transform="translate(78,306)"/>
<path d="M0 0 C1.9375 0.3125 1.9375 0.3125 4 1 C4.33 1.99 4.66 2.98 5 4 C1.25 5.125 1.25 5.125 -1 4 C-0.67 2.68 -0.34 1.36 0 0 Z " fill="#B04D3C" transform="translate(352,292)"/>
<path d="M0 0 C0.20086443 3.71599191 0.1519437 4.77208445 -2 8 C-3.32 7.34 -4.64 6.68 -6 6 C-5.01 6 -4.02 6 -3 6 C-3 4.35 -3 2.7 -3 1 C-1 0 -1 0 0 0 Z " fill="#BB6658" transform="translate(361,287)"/>
<path d="M0 0 C1.98 0.99 1.98 0.99 4 2 C4 2.66 4 3.32 4 4 C4.66 4 5.32 4 6 4 C6 4.66 6 5.32 6 6 C6.66 6 7.32 6 8 6 C8 6.66 8 7.32 8 8 C5.525 7.01 5.525 7.01 3 6 C3 5.34 3 4.68 3 4 C2.34 4 1.68 4 1 4 C0.67 2.68 0.34 1.36 0 0 Z " fill="#BF6D5C" transform="translate(287,201)"/>
<path d="M0 0 C1.98 0 3.96 0 6 0 C4.35830472 2.02054804 2.69088222 4.02043058 1 6 C0.67 6 0.34 6 0 6 C0 4.02 0 2.04 0 0 Z " fill="#BF6B5C" transform="translate(305,188)"/>
<path d="M0 0 C1.65 0 3.3 0 5 0 C3.9024777 2.99324263 3.32317108 3.84610901 0.375 5.25 C-0.40875 5.4975 -1.1925 5.745 -2 6 C-1.34 4.02 -0.68 2.04 0 0 Z " fill="#B55E51" transform="translate(107,336)"/>
<path d="M0 0 C0.99 0.33 1.98 0.66 3 1 C3.33 2.65 3.66 4.3 4 6 C3.01 6.495 3.01 6.495 2 7 C2 6.34 2 5.68 2 5 C1.01 4.67 0.02 4.34 -1 4 C-0.67 2.68 -0.34 1.36 0 0 Z " fill="#BA5F54" transform="translate(300,306)"/>
<path d="M0 0 C1.32 0 2.64 0 4 0 C4 1.98 4 3.96 4 6 C1 5 1 5 -0.1875 2.9375 C-0.5896875 1.9784375 -0.5896875 1.9784375 -1 1 C-0.67 0.67 -0.34 0.34 0 0 Z " fill="#B4331C" transform="translate(262,303)"/>
<path d="M0 0 C2.31 0 4.62 0 7 0 C6.67 0.99 6.34 1.98 6 3 C5.34 3 4.68 3 4 3 C4 3.66 4 4.32 4 5 C3.01 4.67 2.02 4.34 1 4 C0.3125 1.9375 0.3125 1.9375 0 0 Z " fill="#B75641" transform="translate(265,197)"/>
<path d="M0 0 C0 0.99 0 1.98 0 3 C-1.28745036 3.38922918 -2.58019597 3.76098036 -3.875 4.125 C-4.95394531 4.43824219 -4.95394531 4.43824219 -6.0546875 4.7578125 C-6.69664062 4.83773437 -7.33859375 4.91765625 -8 5 C-8.66 4.34 -9.32 3.68 -10 3 C-8.70990357 2.49596232 -7.41786211 1.99690074 -6.125 1.5 C-5.04605469 1.08234375 -5.04605469 1.08234375 -3.9453125 0.65625 C-2 0 -2 0 0 0 Z " fill="#B3594A" transform="translate(224,136)"/>
<path d="M0 0 C0.33 0 0.66 0 1 0 C1.125 7.625 1.125 7.625 0 11 C-0.66 11 -1.32 11 -2 11 C-2 10.34 -2 9.68 -2 9 C-2.66 9 -3.32 9 -4 9 C-3.67 8.01 -3.34 7.02 -3 6 C-2.01 6.33 -1.02 6.66 0 7 C0 4.69 0 2.38 0 0 Z " fill="#D78071" transform="translate(261,122)"/>
<path d="M0 0 C0.33 0.99 0.66 1.98 1 3 C-0.3125 5.1875 -0.3125 5.1875 -2 7 C-2.66 7 -3.32 7 -4 7 C-4 5.35 -4 3.7 -4 2 C-2.68 1.34 -1.36 0.68 0 0 Z " fill="#AD351C" transform="translate(275,313)"/>
<path d="M0 0 C2 1 2 1 2 1 Z M-1 1 C-0.67 1.99 -0.34 2.98 0 4 C0.66 4 1.32 4 2 4 C1.67 4.66 1.34 5.32 1 6 C-1.64 5.34 -4.28 4.68 -7 4 C-4 2 -4 2 -1 1 Z " fill="#BB5D49" transform="translate(99,307)"/>
<path d="M0 0 C2.97 0.495 2.97 0.495 6 1 C5.34 2.32 4.68 3.64 4 5 C2.02 4.34 0.04 3.68 -2 3 C-1.34 2.01 -0.68 1.02 0 0 Z " fill="#B24936" transform="translate(169,243)"/>
<path d="M0 0 C0.66 1.32 1.32 2.64 2 4 C0.1875 5.0625 0.1875 5.0625 -2 6 C-2.99 5.67 -3.98 5.34 -5 5 C-3.35 3.35 -1.7 1.7 0 0 Z " fill="#BE6D5C" transform="translate(303,203)"/>
<path d="M0 0 C0.99 0.33 1.98 0.66 3 1 C3 1.66 3 2.32 3 3 C3.66 3.33 4.32 3.66 5 4 C2.69 4.33 0.38 4.66 -2 5 C-2.33 4.34 -2.66 3.68 -3 3 C-2 2 -1 1 0 0 Z " fill="#BF5643" transform="translate(298,146)"/>
<path d="M0 0 C-0.33 0.99 -0.66 1.98 -1 3 C-1.66 3 -2.32 3 -3 3 C-3 3.66 -3 4.32 -3 5 C-4.65 5.33 -6.3 5.66 -8 6 C-8 5.34 -8 4.68 -8 4 C-2.58823529 0 -2.58823529 0 0 0 Z " fill="#BC6D5C" transform="translate(205,145)"/>
<path d="M0 0 C0.33 0 0.66 0 1 0 C1 2.31 1 4.62 1 7 C0.01 7 -0.98 7 -2 7 C-2 7.66 -2 8.32 -2 9 C-2.66 9 -3.32 9 -4 9 C-3.71125 8.443125 -3.4225 7.88625 -3.125 7.3125 C-1.9586747 4.91505355 -0.9660119 2.48403061 0 0 Z " fill="#BB5339" transform="translate(235,313)"/>
<path d="M0 0 C0.66 0.33 1.32 0.66 2 1 C1.34 2.32 0.68 3.64 0 5 C-0.66 5 -1.32 5 -2 5 C-2 5.66 -2 6.32 -2 7 C-2.66 7 -3.32 7 -4 7 C-3.43628586 3.73045798 -2.50037734 2.17424117 0 0 Z " fill="#B55849" transform="translate(201,306)"/>
<path d="M0 0 C1.98 0.495 1.98 0.495 4 1 C4.33 3.97 4.66 6.94 5 10 C4.34 10 3.68 10 3 10 C2.896875 8.88625 2.79375 7.7725 2.6875 6.625 C2.460625 5.42875 2.23375 4.2325 2 3 C1.01 2.34 0.02 1.68 -1 1 C-0.67 0.67 -0.34 0.34 0 0 Z " fill="#AF5C3C" transform="translate(263,300)"/>
<path d="M0 0 C2.97 0 5.94 0 9 0 C8.34 0.66 7.68 1.32 7 2 C5.68 2 4.36 2 3 2 C2.67 2.66 2.34 3.32 2 4 C1.34 2.68 0.68 1.36 0 0 Z " fill="#A12115" transform="translate(179,284)"/>
<path d="M0 0 C0.99 0.33 1.98 0.66 3 1 C2.125 5.75 2.125 5.75 1 8 C0.01 6.68 -0.98 5.36 -2 4 C-1.34 2.68 -0.68 1.36 0 0 Z " fill="#C1775C" transform="translate(320,166)"/>
<path d="M0 0 C0.33 0 0.66 0 1 0 C1 2.31 1 4.62 1 7 C0.01 7 -0.98 7 -2 7 C-2.33 6.01 -2.66 5.02 -3 4 C-2.34 4 -1.68 4 -1 4 C-0.67 2.68 -0.34 1.36 0 0 Z " fill="#B53624" transform="translate(420,335)"/>
<path d="M0 0 C2.4375 0.375 2.4375 0.375 5 1 C5.33 1.66 5.66 2.32 6 3 C3.36 3 0.72 3 -2 3 C-1.34 2.01 -0.68 1.02 0 0 Z " fill="#BB6656" transform="translate(226,329)"/>
<path d="M0 0 C0.33 1.32 0.66 2.64 1 4 C-2.75 5.125 -2.75 5.125 -5 4 C-4.67 3.01 -4.34 2.02 -4 1 C-1.9375 0.3125 -1.9375 0.3125 0 0 Z " fill="#C14937" transform="translate(83,323)"/>
<path d="M0 0 C0.33 0 0.66 0 1 0 C1 1.98 1 3.96 1 6 C-0.65 6.66 -2.3 7.32 -4 8 C-3.67 6.68 -3.34 5.36 -3 4 C-2.34 4 -1.68 4 -1 4 C-0.67 2.68 -0.34 1.36 0 0 Z " fill="#CC6B53" transform="translate(158,319)"/>
<path d="M0 0 C1.32 0.33 2.64 0.66 4 1 C3 4 3 4 0 6 C0 4.02 0 2.04 0 0 Z " fill="#AB341C" transform="translate(226,304)"/>
<path d="M0 0 C2.0625 0.4375 2.0625 0.4375 4 1 C4 1.99 4 2.98 4 4 C3.01 4.33 2.02 4.66 1 5 C1 4.01 1 3.02 1 2 C0.34 1.67 -0.32 1.34 -1 1 C-0.67 0.67 -0.34 0.34 0 0 Z " fill="#AF3020" transform="translate(158,302)"/>
<path d="M0 0 C3.3 0.33 6.6 0.66 10 1 C9.34 1.66 8.68 2.32 8 3 C4.4375 2.75 4.4375 2.75 1 2 C0.67 1.34 0.34 0.68 0 0 Z " fill="#C77D69" transform="translate(292,226)"/>
<path d="M0 0 C0.66 1.32 1.32 2.64 2 4 C0.68 4 -0.64 4 -2 4 C-2.33 4.66 -2.66 5.32 -3 6 C-3.33 5.01 -3.66 4.02 -4 3 C-3.34 3 -2.68 3 -2 3 C-2 2.34 -2 1.68 -2 1 C-1.34 0.67 -0.68 0.34 0 0 Z " fill="#BC5B4E" transform="translate(326,181)"/>
<path d="M0 0 C2.97 0.495 2.97 0.495 6 1 C5.67 1.99 5.34 2.98 5 4 C2.03 3.505 2.03 3.505 -1 3 C-0.67 2.01 -0.34 1.02 0 0 Z " fill="#AB4C37" transform="translate(234,132)"/>
</svg>
